<svg version="1.1" id="Layer_1" xmlns="http://www.w3.org/2000/svg" xmlns:xlink="http://www.w3.org/1999/xlink" x="0px" y="0px"
	 width="100%" viewBox="0 0 1814 1814" enable-background="new 0 0 1814 1814" xml:space="preserve">
<path fill="#6F9440" opacity="1.000000" stroke="none" 
	d="
M1026.994141,1689.238403 
	C1026.994141,1689.238403 1026.863159,1689.359009 1026.344360,1689.250000 
	C1020.510803,1690.956909 1014.325623,1691.616577 1010.060913,1694.827148 
	C1000.949951,1701.685791 991.512146,1707.276245 980.413818,1710.101685 
	C976.299377,1711.149048 973.642883,1713.960083 973.645447,1718.589722 
	C973.645447,1718.589722 973.544250,1718.711060 973.068726,1718.533569 
	C969.439331,1717.635864 966.430481,1717.000122 964.614746,1720.920288 
	C964.135437,1721.954834 962.576904,1722.581909 961.406738,1723.189453 
	C952.996887,1727.555054 944.587402,1731.923218 936.121887,1736.179199 
	C929.432190,1739.542358 922.402405,1742.135986 916.495789,1747.098877 
	C914.238770,1748.995361 910.491638,1749.664429 907.361755,1749.849976 
	C902.503601,1750.138062 900.157654,1746.380371 902.857117,1742.305298 
	C907.383240,1735.472534 907.914429,1727.853027 907.917297,1720.269287 
	C908.015869,1459.773804 907.999939,1199.278320 907.988525,938.782776 
	C907.988464,936.954407 908.034607,935.086243 907.698059,933.304871 
	C906.456116,926.730530 909.817444,922.213745 916.461182,921.602539 
	C917.518250,921.505310 918.672974,921.144897 919.541992,920.552979 
	C923.547729,917.824341 927.232117,914.531006 931.468933,912.253967 
	C940.066589,907.633301 948.963013,903.571167 957.705505,899.217041 
	C965.758545,895.206177 971.730469,887.352539 981.451050,886.363586 
	C982.161133,886.291321 982.748901,885.360046 983.466064,884.957458 
	C987.014893,882.965698 990.585327,881.012512 994.153992,879.056335 
	C995.573975,878.278076 997.068909,877.620361 998.426392,876.747070 
	C1002.544312,874.097595 1005.482666,869.009216 1011.652222,870.610840 
	C1012.331787,870.787292 1013.873840,869.955078 1014.078125,869.298767 
	C1016.718872,860.813049 1027.513550,864.187683 1031.319702,857.413696 
	C1031.519043,857.058899 1032.952881,857.555603 1033.703247,857.315918 
	C1034.873779,856.942200 1036.032959,856.398926 1037.053711,855.714111 
	C1041.265625,852.888184 1045.494263,850.077454 1049.575928,847.070190 
	C1052.139526,845.181335 1054.453003,842.953125 1056.887695,840.903748 
	C1056.896606,840.930298 1056.853882,840.894836 1057.265869,840.913635 
	C1058.668213,840.856201 1059.717896,840.966858 1060.639893,840.674622 
	C1069.358032,837.911499 1076.374634,831.128784 1085.798462,829.992065 
	C1086.053955,829.961182 1086.297974,829.571228 1086.489014,829.306580 
	C1090.848267,823.266846 1096.302246,819.895386 1103.877075,822.339050 
	C1104.510132,820.252808 1104.511597,817.820435 1105.712402,816.800964 
	C1108.148926,814.732544 1111.188965,813.342651 1114.060303,811.824341 
	C1125.356689,805.850952 1136.684082,799.936401 1148.159668,794.313354 
	C1150.027710,798.324280 1152.762085,798.508606 1156.036255,796.892944 
	C1157.349243,796.245056 1158.678223,795.630005 1160.148438,795.277954 
	C1161.322144,795.603210 1162.347168,795.650574 1163.372314,795.697876 
	C1162.248291,794.799377 1161.124146,793.900879 1159.858398,792.716797 
	C1158.477905,791.620728 1157.238892,790.810364 1156.256958,789.772583 
	C1159.675903,788.030701 1162.837891,786.516296 1166.120117,785.254150 
	C1166.054077,786.966003 1165.867676,788.425598 1165.681396,789.885132 
	C1166.134155,789.995544 1166.586914,790.105896 1167.039673,790.216248 
	C1167.693115,787.811157 1168.346558,785.406067 1169.282227,782.801819 
	C1175.754395,779.401245 1180.739746,773.679077 1188.446411,773.607727 
	C1188.979614,773.602783 1189.697754,772.997437 1190.005615,772.478821 
	C1192.492798,768.288818 1196.262817,766.839844 1200.704346,767.462891 
	C1203.488525,761.002136 1207.662720,758.959473 1214.100952,762.797791 
	C1213.512085,760.822876 1213.120361,759.509216 1212.793579,758.413086 
	C1222.982300,752.959229 1232.812500,747.706238 1242.633911,742.436890 
	C1249.095825,738.970093 1255.545044,735.479797 1262.144775,732.265747 
	C1265.742798,732.042664 1269.297241,731.907166 1272.617554,730.955139 
	C1275.360962,730.168701 1276.422119,727.872681 1275.237671,724.749084 
	C1276.851685,723.615234 1278.156372,722.580994 1279.617798,721.867371 
	C1283.819336,719.815674 1288.307617,718.258850 1292.272461,715.835632 
	C1298.385376,712.099548 1303.962646,707.477722 1310.118896,703.824219 
	C1319.277222,698.389038 1328.709229,693.408875 1338.104980,688.385132 
	C1339.949707,687.398804 1342.151123,687.066956 1344.202759,686.485474 
	C1345.288696,686.177734 1346.898071,686.364136 1347.432861,685.676025 
	C1352.164062,679.588013 1359.526123,677.536377 1365.564209,673.480286 
	C1367.276733,672.329834 1368.509277,670.464905 1369.964355,668.960388 
	C1369.966675,668.993103 1369.919800,668.947083 1370.270630,668.993408 
	C1372.210693,669.361450 1374.126343,670.404236 1375.324341,669.861755 
	C1378.250000,668.536926 1380.848267,666.485413 1383.569946,664.713745 
	C1386.874634,662.562500 1390.088623,660.256958 1393.490479,658.273071 
	C1398.434448,655.390076 1403.658325,652.964844 1408.471558,649.888977 
	C1411.006592,648.268982 1412.695801,647.843933 1414.968262,650.123535 
	C1415.890259,651.048340 1417.673950,651.114075 1419.065552,651.570618 
	C1419.195190,651.174561 1419.324707,650.778442 1419.454224,650.382385 
	C1418.450806,649.023010 1417.447266,647.663696 1416.383057,646.221924 
	C1419.940918,644.161804 1423.018066,642.234192 1426.224609,640.553040 
	C1433.625854,636.672729 1441.244385,633.180908 1448.480347,629.019531 
	C1454.521851,625.545166 1459.783325,620.363159 1467.737305,622.756409 
	C1468.639648,623.028015 1469.926270,622.022095 1471.486694,621.439941 
	C1469.738281,620.175415 1468.634888,619.377441 1466.579956,617.891235 
	C1469.468994,616.695251 1471.488037,615.804016 1473.549316,615.024536 
	C1475.075073,614.447510 1477.266968,614.504700 1478.115601,613.442932 
	C1484.977173,604.858215 1496.888794,605.811646 1504.662109,599.142029 
	C1508.517700,595.833923 1512.127563,592.239380 1515.847900,588.809509 
	C1515.847046,588.844666 1515.778320,588.829956 1516.193115,588.829346 
	C1523.712402,589.381836 1527.974731,583.703552 1533.571777,580.978210 
	C1537.087524,579.266113 1541.958618,579.050415 1543.129639,573.663330 
	C1543.832153,573.226257 1544.371582,573.030579 1545.141479,573.030945 
	C1545.914551,573.485474 1546.457275,573.743958 1546.924316,574.355896 
	C1545.694336,578.407349 1547.448730,581.187134 1550.801270,579.601562 
	C1555.828979,577.223633 1560.099854,577.125122 1564.743896,579.777832 
	C1565.248535,580.066040 1566.196411,580.080444 1566.684570,579.791870 
	C1567.726562,579.175842 1568.601807,578.277527 1569.545410,577.494995 
	C1568.683228,576.693054 1567.947510,575.530212 1566.929321,575.173279 
	C1565.375366,574.628540 1563.626221,574.640930 1561.325073,574.331421 
	C1562.317627,573.213196 1562.583008,572.616516 1562.955566,572.539795 
	C1567.495850,571.604126 1572.618408,571.449524 1572.410034,564.727905 
	C1572.400269,564.408936 1573.036255,563.836548 1573.433960,563.773132 
	C1580.388428,562.662354 1587.046021,557.784729 1594.527466,562.532349 
	C1595.782593,563.328796 1599.594116,562.549194 1600.227783,561.398438 
	C1601.925415,558.315186 1602.536865,554.634460 1603.585815,551.192871 
	C1603.858398,550.298767 1603.878418,548.973511 1604.483521,548.593994 
	C1607.735840,546.554199 1611.055786,544.577087 1614.531738,542.964905 
	C1615.658691,542.442200 1617.384033,542.879089 1618.738770,543.240173 
	C1622.558350,544.258301 1626.282227,545.714417 1630.149048,546.422791 
	C1631.123901,546.601379 1633.101074,544.817627 1633.492554,543.579834 
	C1633.815552,542.558777 1632.476196,541.012024 1631.680298,539.277649 
	C1637.255371,537.235474 1636.386475,533.133911 1634.814209,528.290649 
	C1640.670166,535.058105 1646.021362,531.682007 1651.809082,529.149109 
	C1654.026123,528.178833 1657.246094,529.437439 1659.997437,529.774963 
	C1661.530273,529.963013 1663.039429,530.345581 1664.559204,530.640503 
	C1664.390747,528.943176 1664.180908,527.248657 1664.066528,525.547668 
	C1663.968384,524.087646 1663.426270,522.293762 1664.057495,521.224548 
	C1665.349487,519.036743 1667.460449,517.351074 1668.939209,515.250977 
	C1671.486816,511.632690 1674.340210,511.528717 1677.486572,514.587463 
	C1680.864258,517.871216 1681.034912,521.787903 1681.034302,526.047058 
	C1680.996094,783.941101 1681.009277,1041.835205 1680.912109,1299.729248 
	C1680.910645,1303.600586 1679.789795,1307.522705 1678.814331,1311.324585 
	C1678.152344,1313.904785 1678.123901,1315.555786 1680.822754,1317.112305 
	C1682.323242,1317.977783 1682.968994,1320.325317 1683.771362,1322.250000 
	C1677.395508,1327.160034 1671.379150,1332.019287 1664.991211,1336.327271 
	C1663.705444,1337.194458 1660.991943,1336.058716 1658.970093,1335.672241 
	C1657.977173,1335.482422 1657.060669,1334.893799 1656.195679,1334.522705 
	C1655.737061,1337.192139 1656.105957,1340.666260 1654.857056,1341.404663 
	C1646.487183,1346.354614 1637.759644,1350.697632 1629.175415,1355.288452 
	C1624.369629,1357.858521 1619.522095,1360.372803 1614.878906,1363.215210 
	C1612.557983,1364.635986 1610.806885,1366.668091 1608.027588,1363.854248 
	C1607.343140,1363.161377 1605.360596,1363.750977 1603.162964,1363.750977 
	C1604.813232,1365.770508 1605.671143,1366.820312 1606.742676,1368.131592 
	C1605.353638,1368.911255 1604.380127,1369.487549 1603.380127,1370.013550 
	C1599.640625,1371.980957 1595.996948,1374.178955 1592.119385,1375.823608 
	C1587.795288,1377.657593 1583.252197,1378.972900 1578.811890,1380.535278 
	C1577.129028,1381.127319 1574.317871,1381.424316 1573.996948,1382.465210 
	C1572.689331,1386.705078 1569.995239,1388.160645 1565.905396,1388.348755 
	C1564.948853,1388.392822 1564.089111,1389.671753 1563.109497,1390.256592 
	C1560.901367,1391.575073 1558.523193,1392.641357 1556.435669,1394.122559 
	C1551.918823,1397.327881 1544.510376,1397.336304 1544.060181,1405.118286 
	C1544.060181,1405.118286 1544.045410,1405.050293 1543.736572,1405.088745 
	C1542.655762,1405.569092 1541.883667,1406.011108 1541.111572,1406.453125 
	C1541.111572,1406.453125 1541.260376,1406.336914 1540.899170,1406.315918 
	C1536.861938,1407.933960 1533.137573,1409.473022 1529.519165,1411.230469 
	C1518.126465,1416.763550 1506.801025,1422.436157 1495.384888,1427.920044 
	C1492.670288,1429.223755 1489.465088,1429.597168 1486.901611,1431.105469 
	C1481.636719,1434.203003 1476.766235,1437.967163 1471.525146,1441.109863 
	C1465.080200,1444.974487 1457.767334,1447.678345 1452.019409,1452.348145 
	C1444.492310,1458.463989 1436.011353,1461.571411 1426.683838,1463.872559 
	C1424.578491,1463.830078 1422.789185,1463.915039 1420.939941,1463.664429 
	C1418.599243,1460.923584 1418.599243,1460.923584 1416.213867,1464.000000 
	C1417.728882,1464.000000 1418.864502,1464.000000 1419.866699,1464.310303 
	C1415.185547,1467.735352 1410.503662,1470.679077 1406.174194,1474.072510 
	C1404.927856,1475.049438 1404.696655,1477.321655 1403.761719,1479.248047 
	C1392.894775,1484.245117 1384.017334,1492.790039 1371.625610,1494.344482 
	C1371.995239,1498.649170 1369.169189,1499.995117 1365.308105,1500.548218 
	C1359.244629,1501.416748 1355.502075,1504.638916 1355.718384,1508.519287 
	C1355.718384,1508.519287 1355.666870,1508.711914 1355.167969,1508.618652 
	C1348.638306,1510.977173 1342.524780,1513.247803 1336.606689,1515.947388 
	C1332.918213,1517.629883 1329.525513,1519.960327 1325.880005,1521.658447 
	C1323.214600,1517.365601 1319.858154,1519.131348 1316.928833,1520.385376 
	C1311.620850,1522.657715 1306.286621,1524.999146 1301.334839,1527.937500 
	C1295.919189,1531.151001 1291.659424,1536.247681 1284.881348,1537.233276 
	C1282.778198,1537.539185 1280.903564,1539.696777 1278.829102,1539.870728 
	C1269.297363,1540.670044 1265.370850,1545.104004 1265.730713,1555.229614 
	C1260.295776,1556.848389 1255.764160,1558.134521 1251.095093,1562.153564 
	C1246.524170,1566.088501 1240.261597,1569.119629 1234.901489,1572.882568 
	C1232.165405,1574.803345 1228.562500,1575.488281 1225.353149,1576.736206 
	C1223.194702,1577.575317 1220.894897,1578.177002 1218.924927,1579.337402 
	C1217.106934,1580.408569 1215.527100,1581.970337 1214.045776,1583.511475 
	C1208.106201,1589.690674 1199.499268,1590.905029 1192.499268,1595.187988 
	C1182.576782,1601.259033 1172.124634,1606.463013 1161.913086,1612.063599 
	C1158.333740,1614.026733 1155.004639,1617.023315 1151.192383,1617.853394 
	C1144.986816,1619.204590 1140.619141,1622.868286 1135.957397,1626.580811 
	C1133.175781,1628.796021 1129.767212,1630.228149 1126.625488,1631.985107 
	C1124.611572,1633.111206 1122.688232,1634.665894 1120.520142,1635.202393 
	C1111.860840,1637.345093 1105.124756,1643.011841 1097.626343,1647.265259 
	C1091.782349,1650.579956 1086.107422,1654.194458 1080.238281,1657.462280 
	C1078.140991,1658.629883 1075.512451,1658.856201 1073.440796,1660.055176 
	C1066.387695,1664.136841 1060.551880,1671.180786 1052.512695,1668.998047 
	C1050.030151,1671.991577 1048.364258,1674.510620 1046.185181,1676.454346 
	C1044.654419,1677.820068 1042.398071,1678.351318 1040.513428,1679.345825 
	C1037.391724,1680.993164 1034.416260,1683.805908 1031.181519,1684.125000 
	C1027.167358,1684.521240 1026.952881,1686.365967 1026.994141,1689.238403 
M1336.016724,700.842957 
	C1336.653442,699.949646 1337.290283,699.056335 1337.927002,698.162964 
	C1335.918335,698.256714 1333.909668,698.350464 1331.901001,698.444214 
	C1331.893555,699.038696 1331.886108,699.633179 1331.878540,700.227661 
	C1333.028198,700.459595 1334.177856,700.691528 1336.016724,700.842957 
M1623.682129,1351.518555 
	C1624.470337,1351.099731 1625.258423,1350.680908 1626.046631,1350.262085 
	C1625.650024,1349.818726 1625.253418,1349.375488 1624.856689,1348.932129 
	C1624.293823,1349.728027 1623.730835,1350.523926 1623.682129,1351.518555 
M1128.996826,812.772644 
	C1129.138794,812.315002 1129.280884,811.857361 1129.422852,811.399658 
	C1128.695190,811.520203 1127.967651,811.640747 1127.239990,811.761292 
	C1127.659912,812.116272 1128.079834,812.471252 1128.996826,812.772644 
M1530.157959,587.209290 
	C1530.772949,586.858215 1531.388062,586.507202 1532.003052,586.156128 
	C1531.807373,585.933472 1531.611816,585.710754 1531.416138,585.488098 
	C1530.898193,585.948547 1530.380127,586.408997 1530.157959,587.209290 
M1332.795532,1509.318726 
	C1332.605225,1509.646240 1332.414917,1509.973877 1332.224731,1510.301392 
	C1332.749390,1510.299438 1333.274048,1510.297485 1333.798706,1510.295654 
	C1333.603882,1509.969971 1333.409058,1509.644287 1332.795532,1509.318726 
M1232.802124,1569.905640 
	C1233.274780,1569.773193 1233.747314,1569.640747 1234.219971,1569.508301 
	C1234.076660,1569.268066 1233.933350,1569.027710 1233.790039,1568.787354 
	C1233.444580,1569.030029 1233.099121,1569.272705 1232.802124,1569.905640 
M922.822021,924.050110 
	C923.167114,924.428772 923.512146,924.807373 923.857178,925.185974 
	C923.968384,925.083130 924.079651,924.980286 924.190918,924.877502 
	C923.827209,924.515869 923.463440,924.154236 922.822021,924.050110 
M984.757019,1702.066162 
	C984.888062,1701.974609 985.019043,1701.883179 985.150024,1701.791626 
	C985.022034,1701.817261 984.894043,1701.843018 984.757019,1702.066162 
M1179.934082,781.756836 
	C1180.025513,781.887817 1180.116943,782.018799 1180.208374,782.149780 
	C1180.182739,782.021851 1180.156982,781.893860 1179.934082,781.756836 
M1441.756836,1452.066040 
	C1441.887817,1451.974609 1442.018799,1451.883179 1442.149780,1451.791748 
	C1442.021851,1451.817383 1441.893921,1451.843140 1441.756836,1452.066040 
M999.477478,879.504028 
	C999.477478,879.504028 999.512573,879.492981 999.477478,879.504028 
z"/>
<path fill="#709246" opacity="1.000000" stroke="none" 
	d="
M1544.409912,1405.054199 
	C1544.510376,1397.336304 1551.918823,1397.327881 1556.435669,1394.122559 
	C1558.523193,1392.641357 1560.901367,1391.575073 1563.109497,1390.256592 
	C1564.089111,1389.671753 1564.948853,1388.392822 1565.905396,1388.348755 
	C1569.995239,1388.160645 1572.689331,1386.705078 1573.996948,1382.465210 
	C1574.317871,1381.424316 1577.129028,1381.127319 1578.811890,1380.535278 
	C1583.252197,1378.972900 1587.795288,1377.657593 1592.119385,1375.823608 
	C1595.996948,1374.178955 1599.640625,1371.980957 1603.380127,1370.013550 
	C1604.380127,1369.487549 1605.353638,1368.911255 1606.742676,1368.131592 
	C1605.671143,1366.820312 1604.813232,1365.770508 1603.162964,1363.750977 
	C1605.360596,1363.750977 1607.343140,1363.161377 1608.027588,1363.854248 
	C1610.806885,1366.668091 1612.557983,1364.635986 1614.878906,1363.215210 
	C1619.522095,1360.372803 1624.369629,1357.858521 1629.175415,1355.288452 
	C1637.759644,1350.697632 1646.487183,1346.354614 1654.857056,1341.404663 
	C1656.105957,1340.666260 1655.737061,1337.192139 1656.195679,1334.522705 
	C1657.060669,1334.893799 1657.977173,1335.482422 1658.970093,1335.672241 
	C1660.991943,1336.058716 1663.705444,1337.194458 1664.991211,1336.327271 
	C1671.379150,1332.019287 1677.395508,1327.160034 1684.111572,1322.130127 
	C1685.567871,1319.089111 1687.132324,1316.427612 1687.191650,1313.733154 
	C1687.292725,1309.144897 1686.057007,1304.536011 1686.055908,1299.935547 
	C1685.993286,1031.623779 1686.000000,763.312012 1685.986938,494.624634 
	C1684.696167,489.603119 1681.533691,487.658539 1677.012207,488.128998 
	C1675.465210,488.289948 1673.344849,487.676117 1672.245605,486.623535 
	C1665.782227,480.434540 1656.199219,479.616455 1649.868408,472.694183 
	C1646.286987,468.778259 1639.978638,467.387024 1634.954102,464.752380 
	C1629.343506,461.810425 1623.796143,458.748138 1617.545166,455.373199 
	C1616.152344,457.903198 1613.040405,461.208191 1613.747925,462.692505 
	C1616.309204,468.065765 1621.890747,467.397736 1627.521851,466.447113 
	C1626.606567,468.651794 1626.029663,470.041260 1625.379150,471.608337 
	C1630.726074,474.553497 1635.747437,477.380737 1640.827148,480.098846 
	C1645.366211,482.527710 1650.305420,484.363678 1654.461548,487.315155 
	C1659.872070,491.157471 1665.440796,493.092102 1672.111572,492.297852 
	C1673.193115,494.683594 1674.453247,496.696136 1675.032104,498.888550 
	C1675.423096,500.370270 1675.479370,502.917328 1674.607788,503.588043 
	C1670.612915,506.662750 1666.238281,509.244019 1661.647705,512.012390 
	C1660.196899,512.349976 1659.098389,512.677612 1657.699219,513.129150 
	C1656.265503,514.835266 1655.132690,516.417603 1653.774414,518.169434 
	C1653.032715,518.557617 1652.516357,518.776428 1651.750732,518.894165 
	C1650.667236,518.860840 1649.833008,518.928467 1648.656494,519.093018 
	C1631.875977,528.460754 1615.437988,537.731567 1598.639404,547.039734 
	C1595.185913,548.718872 1592.093018,550.360657 1588.838135,552.279175 
	C1588.717407,556.166626 1586.892090,557.335693 1583.406128,557.042542 
	C1577.313843,556.530212 1571.918579,558.414673 1568.060669,563.238342 
	C1565.245239,566.758423 1558.659912,569.219177 1554.123169,567.550110 
	C1591.659668,546.768616 1629.004395,526.273315 1666.316162,505.717957 
	C1668.508301,504.510254 1670.434326,502.819366 1672.973267,501.003540 
	C1668.905396,498.401825 1665.820312,496.173340 1662.511230,494.351562 
	C1626.295532,474.413483 1590.042236,454.543243 1553.804199,434.645569 
	C1516.824219,414.340546 1479.847900,394.029022 1442.873413,373.713989 
	C1416.148560,359.030487 1389.462646,344.275726 1362.697632,329.665771 
	C1339.060791,316.763245 1315.293335,304.099609 1291.671875,291.169159 
	C1278.788940,284.117035 1266.137939,276.642792 1253.295654,269.514801 
	C1235.761963,259.782928 1218.141968,250.206833 1200.565918,240.551086 
	C1170.250854,223.896805 1139.942139,207.231140 1109.629272,190.572968 
	C1044.315308,154.680344 978.969482,118.845421 913.749268,82.783348 
	C908.929504,80.118385 905.434326,80.074142 900.593323,82.761162 
	C854.167236,108.530403 807.585388,134.019119 761.048279,159.588394 
	C647.820984,221.799866 534.592896,284.010010 421.366699,346.223511 
	C366.714874,376.252625 312.057037,406.270905 257.419891,436.326721 
	C219.943771,456.942322 182.498627,477.614197 144.686310,498.332947 
	C139.946945,499.567291 139.908646,502.842712 139.909485,506.585388 
	C139.969406,774.314758 139.962677,1042.044067 139.964676,1309.773438 
	C139.964691,1311.271973 139.810776,1312.813232 140.118179,1314.251343 
	C140.277191,1314.995239 141.292618,1315.556152 142.065277,1316.412476 
	C142.687592,1316.797241 143.165726,1316.969116 143.788544,1317.384399 
	C144.285660,1317.727295 144.638107,1317.826904 145.118164,1318.045410 
	C145.245758,1318.164551 145.592575,1318.204468 145.799286,1318.488159 
	C148.678146,1320.149292 151.350311,1321.526733 154.135956,1323.021729 
	C154.249420,1323.139282 154.573715,1323.179199 154.787872,1323.457764 
	C156.995132,1324.797241 158.988205,1325.858032 161.280212,1327.103271 
	C180.464966,1337.670898 199.350922,1348.053955 218.236649,1358.437378 
	C241.178680,1371.050781 264.119690,1383.666016 287.062836,1396.277344 
	C307.159241,1407.323853 327.256653,1418.368286 347.355743,1429.409790 
	C381.757416,1448.308716 416.163208,1467.199951 450.562592,1486.102905 
	C476.902924,1500.577637 503.233154,1515.070557 529.573242,1529.545654 
	C559.734741,1546.120605 589.931641,1562.631470 620.060242,1579.265991 
	C675.230835,1609.726807 730.330261,1640.316772 785.526855,1670.730225 
	C806.903259,1682.508667 828.472229,1693.937256 849.936035,1705.557495 
	C866.288940,1714.410400 882.614380,1723.314087 899.149902,1732.463867 
	C900.730713,1733.440430 902.113770,1734.148193 903.822815,1735.022827 
	C903.822815,1733.255249 903.822815,1732.117065 903.890930,1730.583740 
	C903.912842,1729.122925 903.866699,1728.057129 903.906128,1726.530518 
	C904.005798,1725.236816 904.032227,1724.404053 904.032227,1723.571411 
	C904.034119,1460.217285 904.034485,1196.863159 904.025391,933.509094 
	C904.025330,932.015442 903.890808,930.521790 903.884338,928.631409 
	C903.416382,925.261414 905.051941,923.813171 907.485413,922.493652 
	C923.747742,913.676147 939.948914,904.745728 956.163391,895.839966 
	C973.223267,886.469788 990.253296,877.045044 1007.337891,867.720215 
	C1023.823914,858.721924 1040.362915,849.820801 1056.878662,840.877136 
	C1054.453003,842.953125 1052.139526,845.181335 1049.575928,847.070190 
	C1045.494263,850.077454 1041.265625,852.888184 1037.053711,855.714111 
	C1036.032959,856.398926 1034.873779,856.942200 1033.703247,857.315918 
	C1032.952881,857.555603 1031.519043,857.058899 1031.319702,857.413696 
	C1027.513550,864.187683 1016.718872,860.813049 1014.078125,869.298767 
	C1013.873840,869.955078 1012.331787,870.787292 1011.652222,870.610840 
	C1005.482666,869.009216 1002.544312,874.097595 998.426392,876.747070 
	C997.068909,877.620361 995.573975,878.278076 994.153992,879.056335 
	C990.585327,881.012512 987.014893,882.965698 983.466064,884.957458 
	C982.748901,885.360046 982.161133,886.291321 981.451050,886.363586 
	C971.730469,887.352539 965.758545,895.206177 957.705505,899.217041 
	C948.963013,903.571167 940.066589,907.633301 931.468933,912.253967 
	C927.232117,914.531006 923.547729,917.824341 919.541992,920.552979 
	C918.672974,921.144897 917.518250,921.505310 916.461182,921.602539 
	C909.817444,922.213745 906.456116,926.730530 907.698059,933.304871 
	C908.034607,935.086243 907.988464,936.954407 907.988525,938.782776 
	C907.999939,1199.278320 908.015869,1459.773804 907.917297,1720.269287 
	C907.914429,1727.853027 907.383240,1735.472534 902.857117,1742.305298 
	C900.157654,1746.380371 902.503601,1750.138062 907.361755,1749.849976 
	C910.491638,1749.664429 914.238770,1748.995361 916.495789,1747.098877 
	C922.402405,1742.135986 929.432190,1739.542358 936.121887,1736.179199 
	C944.587402,1731.923218 952.996887,1727.555054 961.406738,1723.189453 
	C962.576904,1722.581909 964.135437,1721.954834 964.614746,1720.920288 
	C966.430481,1717.000122 969.439331,1717.635864 973.002808,1718.489990 
	C958.315796,1727.057373 943.226196,1735.503296 928.118896,1743.917480 
	C922.445679,1747.077271 916.650024,1750.026367 911.070312,1753.341064 
	C908.326721,1754.971069 906.173401,1755.032715 903.295593,1753.445312 
	C845.706726,1721.681030 788.073181,1689.997559 730.408203,1658.371582 
	C715.534912,1650.214478 700.444946,1642.451416 685.589966,1634.261719 
	C618.685730,1597.376831 551.867493,1560.336060 484.947571,1523.479858 
	C406.041046,1480.021851 327.063324,1436.693359 248.113586,1393.314087 
	C210.026230,1372.386963 171.932465,1351.471313 133.838318,1330.556519 
	C132.673065,1329.916748 131.471191,1329.343628 130.015778,1328.115234 
	C124.723480,1323.245972 124.940742,1317.565918 124.942368,1311.664062 
	C125.015938,1043.526733 124.993790,775.389465 125.085899,507.252167 
	C125.087875,501.487732 126.289337,495.723663 126.931244,489.959412 
	C142.774551,481.121857 158.570770,472.198578 174.469223,463.461365 
	C249.050797,422.473785 323.666656,381.548676 398.258545,340.579895 
	C492.680511,288.719696 587.099304,236.853653 681.504089,184.962326 
	C755.486145,144.296753 829.455444,103.607994 903.374939,62.828892 
	C906.296570,61.217117 908.386230,61.503494 911.138794,63.019825 
	C978.823669,100.305557 1046.550415,137.515350 1114.277588,174.724365 
	C1193.979248,218.512115 1273.696045,262.271820 1353.391846,306.070160 
	C1454.091797,361.411621 1554.781860,416.770538 1655.461548,472.148804 
	C1666.976440,478.482483 1678.396484,484.988190 1689.970459,492.157043 
	C1690.147705,494.934845 1690.215210,496.969696 1690.282715,499.004547 
	C1690.258423,499.750519 1690.234131,500.496460 1690.157227,502.075928 
	C1690.074829,504.907806 1690.019531,506.906158 1690.019531,508.904510 
	C1690.015381,737.130493 1690.007690,965.356445 1690.021851,1193.582397 
	C1690.024536,1236.393677 1690.115112,1279.204834 1690.165161,1322.016113 
	C1690.493286,1325.992065 1687.158081,1326.774292 1684.663818,1328.145996 
	C1647.067627,1348.821411 1609.447998,1369.454102 1571.835571,1390.100220 
	C1562.806519,1395.056396 1553.784790,1400.026489 1544.409912,1405.054199 
z"/>
<path fill="#709246" opacity="1.000000" stroke="none" 
	d="
M1027.352051,1689.157959 
	C1026.952881,1686.365967 1027.167358,1684.521240 1031.181519,1684.125000 
	C1034.416260,1683.805908 1037.391724,1680.993164 1040.513428,1679.345825 
	C1042.398071,1678.351318 1044.654419,1677.820068 1046.185181,1676.454346 
	C1048.364258,1674.510620 1050.030151,1671.991577 1052.512695,1668.998047 
	C1060.551880,1671.180786 1066.387695,1664.136841 1073.440796,1660.055176 
	C1075.512451,1658.856201 1078.140991,1658.629883 1080.238281,1657.462280 
	C1086.107422,1654.194458 1091.782349,1650.579956 1097.626343,1647.265259 
	C1105.124756,1643.011841 1111.860840,1637.345093 1120.520142,1635.202393 
	C1122.688232,1634.665894 1124.611572,1633.111206 1126.625488,1631.985107 
	C1129.767212,1630.228149 1133.175781,1628.796021 1135.957397,1626.580811 
	C1140.619141,1622.868286 1144.986816,1619.204590 1151.192383,1617.853394 
	C1155.004639,1617.023315 1158.333740,1614.026733 1161.913086,1612.063599 
	C1172.124634,1606.463013 1182.576782,1601.259033 1192.499268,1595.187988 
	C1199.499268,1590.905029 1208.106201,1589.690674 1214.045776,1583.511475 
	C1215.527100,1581.970337 1217.106934,1580.408569 1218.924927,1579.337402 
	C1220.894897,1578.177002 1223.194702,1577.575317 1225.353149,1576.736206 
	C1228.562500,1575.488281 1232.165405,1574.803345 1234.901489,1572.882568 
	C1240.261597,1569.119629 1246.524170,1566.088501 1251.095093,1562.153564 
	C1255.764160,1558.134521 1260.295776,1556.848389 1266.090576,1555.191650 
	C1268.839233,1553.743774 1271.022583,1552.663940 1273.065308,1551.363403 
	C1278.409668,1547.960571 1283.692627,1544.461060 1289.260498,1541.154053 
	C1290.680664,1540.538818 1291.840332,1539.769409 1293.258911,1538.771362 
	C1298.345825,1536.358643 1303.173828,1534.174438 1308.272827,1531.913086 
	C1309.028442,1531.555908 1309.513184,1531.276123 1310.325195,1530.905518 
	C1312.768188,1529.209839 1314.884155,1527.604858 1317.359741,1525.989746 
	C1319.144653,1525.319702 1320.569946,1524.659790 1322.262695,1523.822021 
	C1323.686890,1523.096069 1324.843506,1522.547974 1326.000000,1522.000000 
	C1329.525513,1519.960327 1332.918213,1517.629883 1336.606689,1515.947388 
	C1342.524780,1513.247803 1348.638306,1510.977173 1355.069336,1508.604736 
	C1338.456665,1518.169678 1321.488281,1527.735596 1304.423218,1537.125977 
	C1234.377197,1575.670044 1164.306885,1614.170166 1094.233643,1652.665283 
	C1072.077759,1664.836670 1049.885498,1676.941895 1027.352051,1689.157959 
z"/>
<path fill="#758C58" opacity="1.000000" stroke="none" 
	d="
M126.603531,489.972229 
	C126.289337,495.723663 125.087875,501.487732 125.085899,507.252167 
	C124.993790,775.389465 125.015938,1043.526733 124.942368,1311.664062 
	C124.940742,1317.565918 124.723480,1323.245972 129.811661,1327.834717 
	C127.911858,1326.685303 125.945602,1325.192261 123.967377,1322.881836 
	C123.969955,1320.565063 123.997269,1319.065918 123.997269,1317.566772 
	C123.997536,1058.704224 123.998665,799.841675 123.987534,540.979126 
	C123.986832,524.656921 123.889870,508.334686 123.837692,492.012451 
	C124.650406,491.336639 125.463104,490.660828 126.603531,489.972229 
z"/>
<path fill="#0E1E00" opacity="1.000000" stroke="none" 
	d="
M123.660957,492.382019 
	C123.889870,508.334686 123.986832,524.656921 123.987534,540.979126 
	C123.998665,799.841675 123.997536,1058.704224 123.997269,1317.566772 
	C123.997269,1319.065918 123.969955,1320.565063 123.895523,1322.529053 
	C123.556938,1320.870972 123.034363,1318.748169 123.034103,1316.625244 
	C123.000847,1043.816528 123.005013,771.007874 123.028740,498.199219 
	C123.028900,496.383362 123.325851,494.567474 123.660957,492.382019 
z"/>
<path fill="#1C2D0A" opacity="1.000000" stroke="none" 
	d="
M1690.354736,1321.650024 
	C1690.115112,1279.204834 1690.024536,1236.393677 1690.021851,1193.582397 
	C1690.007690,965.356445 1690.015381,737.130493 1690.019531,508.904510 
	C1690.019531,506.906158 1690.074829,504.907806 1690.194580,502.447693 
	C1690.522949,504.285309 1690.969604,506.584656 1690.969849,508.884094 
	C1691.000366,777.533325 1690.998657,1046.182495 1690.978149,1314.831787 
	C1690.977905,1316.982544 1690.695068,1319.133179 1690.354736,1321.650024 
z"/>
<path fill="#709246" opacity="1.000000" stroke="none" 
	d="
M1356.011475,1508.356689 
	C1355.502075,1504.638916 1359.244629,1501.416748 1365.308105,1500.548218 
	C1369.169189,1499.995117 1371.995239,1498.649170 1371.625610,1494.344482 
	C1384.017334,1492.790039 1392.894775,1484.245117 1404.032837,1479.169067 
	C1405.028320,1478.561279 1405.514160,1478.280640 1406.271973,1477.884766 
	C1407.029419,1477.179688 1407.514771,1476.589844 1408.371582,1475.964355 
	C1414.277344,1472.933472 1419.849609,1470.004395 1425.305908,1466.873047 
	C1426.144165,1466.392090 1426.448730,1464.980957 1427.000000,1464.000000 
	C1436.011353,1461.571411 1444.492310,1458.463989 1452.019409,1452.348145 
	C1457.767334,1447.678345 1465.080200,1444.974487 1471.525146,1441.109863 
	C1476.766235,1437.967163 1481.636719,1434.203003 1486.901611,1431.105469 
	C1489.465088,1429.597168 1492.670288,1429.223755 1495.384888,1427.920044 
	C1506.801025,1422.436157 1518.126465,1416.763550 1529.519165,1411.230469 
	C1533.137573,1409.473022 1536.861938,1407.933960 1540.954590,1406.392334 
	C1524.368652,1415.975952 1507.403076,1425.529663 1490.355469,1434.934814 
	C1455.964844,1453.907471 1421.544678,1472.826538 1387.103882,1491.708130 
	C1376.893677,1497.305908 1366.573975,1502.704224 1356.011475,1508.356689 
z"/>
<path fill="#709246" opacity="1.000000" stroke="none" 
	d="
M973.972778,1718.496826 
	C973.642883,1713.960083 976.299377,1711.149048 980.413818,1710.101685 
	C991.512146,1707.276245 1000.949951,1701.685791 1010.060913,1694.827148 
	C1014.325623,1691.616577 1020.510803,1690.956909 1026.281250,1689.187256 
	C1017.972656,1694.202759 1009.239258,1699.227539 1000.435364,1704.125610 
	C991.760742,1708.951904 983.014771,1713.649780 973.972778,1718.496826 
z"/>
<path fill="#1C2D0A" opacity="1.000000" stroke="none" 
	d="
M1690.434570,498.676544 
	C1690.215210,496.969696 1690.147705,494.934845 1690.136353,492.468994 
	C1690.323853,494.141541 1690.455200,496.245026 1690.434570,498.676544 
z"/>
<path fill="#709246" opacity="1.000000" stroke="none" 
	d="
M1541.457642,1406.451172 
	C1541.883667,1406.011108 1542.655762,1405.569092 1543.770264,1405.097900 
	C1543.342896,1405.528687 1542.573364,1405.989014 1541.457642,1406.451172 
z"/>
<path fill="#FFFFFF" opacity="1.000000" stroke="none" 
	d="
M143.643860,1317.141113 
	C143.165726,1316.969116 142.687592,1316.797241 142.047058,1315.979980 
	C141.596710,1311.524780 141.057205,1307.714600 141.056625,1303.904541 
	C141.016861,1041.942383 141.017441,779.980164 141.035950,518.018005 
	C141.036423,511.185425 139.734497,504.039856 145.039627,498.260895 
	C182.498627,477.614197 219.943771,456.942322 257.419891,436.326721 
	C312.057037,406.270905 366.714874,376.252625 421.366699,346.223511 
	C534.592896,284.010010 647.820984,221.799866 761.048279,159.588394 
	C807.585388,134.019119 854.167236,108.530403 900.593323,82.761162 
	C905.434326,80.074142 908.929504,80.118385 913.749268,82.783348 
	C978.969482,118.845421 1044.315308,154.680344 1109.629272,190.572968 
	C1139.942139,207.231140 1170.250854,223.896805 1200.565918,240.551086 
	C1218.141968,250.206833 1235.761963,259.782928 1253.295654,269.514801 
	C1266.137939,276.642792 1278.788940,284.117035 1291.671875,291.169159 
	C1315.293335,304.099609 1339.060791,316.763245 1362.697632,329.665771 
	C1389.462646,344.275726 1416.148560,359.030487 1442.873413,373.713989 
	C1479.847900,394.029022 1516.824219,414.340546 1553.804199,434.645569 
	C1590.042236,454.543243 1626.295532,474.413483 1662.511230,494.351562 
	C1665.820312,496.173340 1668.905396,498.401825 1672.973267,501.003540 
	C1670.434326,502.819366 1668.508301,504.510254 1666.316162,505.717957 
	C1629.004395,526.273315 1591.659668,546.768616 1553.833008,567.588867 
	C1552.886719,568.240540 1552.429321,568.580627 1551.626099,568.966309 
	C1549.157104,570.286133 1547.034058,571.560486 1544.911133,572.834839 
	C1544.371582,573.030579 1543.832153,573.226257 1542.772217,573.703491 
	C1533.427490,578.933411 1524.602905,583.881714 1515.778320,588.829956 
	C1515.778320,588.829956 1515.847046,588.844666 1515.494629,588.868713 
	C1480.956665,607.641663 1446.754761,626.360657 1412.593628,645.153687 
	C1398.324341,653.003601 1384.141846,661.011169 1369.919800,668.947083 
	C1369.919800,668.947083 1369.966675,668.993103 1369.609619,668.998413 
	C1362.110718,672.907532 1354.962158,676.799194 1347.827881,680.716919 
	C1261.505127,728.119751 1175.178833,775.516418 1088.870483,822.945312 
	C1078.148193,828.837463 1067.523682,834.907288 1056.853882,840.894775 
	C1056.853882,840.894836 1056.896606,840.930298 1056.887695,840.903687 
	C1040.362915,849.820801 1023.823914,858.721924 1007.337891,867.720215 
	C990.253296,877.045044 973.223267,886.469788 956.163391,895.839966 
	C939.948914,904.745728 923.747742,913.676147 907.485413,922.493652 
	C905.051941,923.813171 903.416382,925.261414 903.711548,929.001709 
	C903.308044,931.583496 902.997742,933.398132 902.997620,935.212830 
	C902.976013,1197.016357 902.974915,1458.819824 903.011780,1720.623413 
	C903.012085,1722.746094 903.539368,1724.868774 903.820557,1726.991455 
	C903.866699,1728.057129 903.912842,1729.122925 903.518677,1730.585327 
	C901.702881,1731.386353 900.327454,1731.790771 898.952087,1732.195068 
	C882.614380,1723.314087 866.288940,1714.410400 849.936035,1705.557495 
	C828.472229,1693.937256 806.903259,1682.508667 785.526855,1670.730225 
	C730.330261,1640.316772 675.230835,1609.726807 620.060242,1579.265991 
	C589.931641,1562.631470 559.734741,1546.120605 529.573242,1529.545654 
	C503.233154,1515.070557 476.902924,1500.577637 450.562592,1486.102905 
	C416.163208,1467.199951 381.757416,1448.308716 347.355743,1429.409790 
	C327.256653,1418.368286 307.159241,1407.323853 287.062836,1396.277344 
	C264.119690,1383.666016 241.178680,1371.050781 218.236649,1358.437378 
	C199.350922,1348.053955 180.464966,1337.670898 161.173019,1326.771484 
	C158.702499,1325.229980 156.638092,1324.204590 154.573700,1323.179199 
	C154.573715,1323.179199 154.249420,1323.139282 154.003418,1322.711182 
	C151.035797,1320.923584 148.314194,1319.563965 145.592575,1318.204468 
	C145.592575,1318.204468 145.245758,1318.164551 144.921295,1317.870117 
	C144.279175,1317.430908 143.961517,1317.286011 143.643860,1317.141113 
z"/>
<path fill="#6F9440" opacity="1.000000" stroke="none" 
	d="
M1551.971924,568.920654 
	C1552.429321,568.580627 1552.886719,568.240540 1553.634033,567.861755 
	C1558.659912,569.219177 1565.245239,566.758423 1568.060669,563.238342 
	C1571.918579,558.414673 1577.313843,556.530212 1583.406128,557.042542 
	C1586.892090,557.335693 1588.717407,556.166626 1589.070923,552.550537 
	C1592.346680,552.448120 1595.309937,552.687073 1598.051147,552.017273 
	C1598.735107,551.850159 1598.703003,548.752930 1599.000000,547.002441 
	C1615.437988,537.731567 1631.875977,528.460754 1648.738770,519.378906 
	C1649.664917,520.091248 1650.166260,520.614624 1650.667603,521.137939 
	C1651.111694,520.423706 1651.555786,519.709412 1652.000000,518.995117 
	C1652.516357,518.776428 1653.032715,518.557617 1654.071533,518.227295 
	C1655.729370,518.077148 1656.864746,518.038574 1658.337891,517.900269 
	C1659.783813,515.867798 1660.891968,513.935120 1662.000000,512.002441 
	C1666.238281,509.244019 1670.612915,506.662750 1674.607788,503.588043 
	C1675.479370,502.917328 1675.423096,500.370270 1675.032104,498.888550 
	C1674.453247,496.696136 1673.193115,494.683594 1672.504395,492.336456 
	C1677.190552,493.052368 1681.595215,494.026276 1686.000000,495.000183 
	C1686.000000,763.312012 1685.993286,1031.623779 1686.055908,1299.935547 
	C1686.057007,1304.536011 1687.292725,1309.144897 1687.191650,1313.733154 
	C1687.132324,1316.427612 1685.567871,1319.089111 1684.340088,1321.885132 
	C1682.968994,1320.325317 1682.323242,1317.977783 1680.822754,1317.112305 
	C1678.123901,1315.555786 1678.152344,1313.904785 1678.814331,1311.324585 
	C1679.789795,1307.522705 1680.910645,1303.600586 1680.912109,1299.729248 
	C1681.009277,1041.835205 1680.996094,783.941101 1681.034302,526.047058 
	C1681.034912,521.787903 1680.864258,517.871216 1677.486572,514.587463 
	C1674.340210,511.528717 1671.486816,511.632690 1668.939209,515.250977 
	C1667.460449,517.351074 1665.349487,519.036743 1664.057495,521.224548 
	C1663.426270,522.293762 1663.968384,524.087646 1664.066528,525.547668 
	C1664.180908,527.248657 1664.390747,528.943176 1664.559204,530.640503 
	C1663.039429,530.345581 1661.530273,529.963013 1659.997437,529.774963 
	C1657.246094,529.437439 1654.026123,528.178833 1651.809082,529.149109 
	C1646.021362,531.682007 1640.670166,535.058105 1634.814209,528.290649 
	C1636.386475,533.133911 1637.255371,537.235474 1631.680298,539.277649 
	C1632.476196,541.012024 1633.815552,542.558777 1633.492554,543.579834 
	C1633.101074,544.817627 1631.123901,546.601379 1630.149048,546.422791 
	C1626.282227,545.714417 1622.558350,544.258301 1618.738770,543.240173 
	C1617.384033,542.879089 1615.658691,542.442200 1614.531738,542.964905 
	C1611.055786,544.577087 1607.735840,546.554199 1604.483521,548.593994 
	C1603.878418,548.973511 1603.858398,550.298767 1603.585815,551.192871 
	C1602.536865,554.634460 1601.925415,558.315186 1600.227783,561.398438 
	C1599.594116,562.549194 1595.782593,563.328796 1594.527466,562.532349 
	C1587.046021,557.784729 1580.388428,562.662354 1573.433960,563.773132 
	C1573.036255,563.836548 1572.400269,564.408936 1572.410034,564.727905 
	C1572.618408,571.449524 1567.495850,571.604126 1562.955566,572.539795 
	C1562.583008,572.616516 1562.317627,573.213196 1561.325073,574.331421 
	C1563.626221,574.640930 1565.375366,574.628540 1566.929321,575.173279 
	C1567.947510,575.530212 1568.683228,576.693054 1569.545410,577.494995 
	C1568.601807,578.277527 1567.726562,579.175842 1566.684570,579.791870 
	C1566.196411,580.080444 1565.248535,580.066040 1564.743896,579.777832 
	C1560.099854,577.125122 1555.828979,577.223633 1550.801270,579.601562 
	C1547.448730,581.187134 1545.694336,578.407349 1547.241943,574.231201 
	C1549.080688,572.142212 1550.526367,570.531433 1551.971924,568.920654 
M1656.224731,524.414978 
	C1656.564087,523.659241 1656.903442,522.903503 1657.242798,522.147766 
	C1656.660767,522.105591 1656.078613,522.063416 1655.496582,522.021240 
	C1655.557007,522.839844 1655.617432,523.658386 1656.224731,524.414978 
M1679.939209,506.265869 
	C1679.942139,505.755310 1679.945068,505.244751 1679.947998,504.734161 
	C1679.544067,504.838226 1679.140259,504.942291 1678.736328,505.046356 
	C1678.988892,505.490509 1679.241455,505.934662 1679.939209,506.265869 
z"/>
<path fill="#709246" opacity="1.000000" stroke="none" 
	d="
M1057.265869,840.913574 
	C1067.523682,834.907288 1078.148193,828.837463 1088.870483,822.945312 
	C1175.178833,775.516418 1261.505127,728.119751 1347.827881,680.716919 
	C1354.962158,676.799194 1362.110718,672.907532 1369.607422,668.965698 
	C1368.509277,670.464905 1367.276733,672.329834 1365.564209,673.480286 
	C1359.526123,677.536377 1352.164062,679.588013 1347.432861,685.676025 
	C1346.898071,686.364136 1345.288696,686.177734 1344.202759,686.485474 
	C1342.151123,687.066956 1339.949707,687.398804 1338.104980,688.385132 
	C1328.709229,693.408875 1319.277222,698.389038 1310.118896,703.824219 
	C1303.962646,707.477722 1298.385376,712.099548 1292.272461,715.835632 
	C1288.307617,718.258850 1283.819336,719.815674 1279.617798,721.867371 
	C1278.156372,722.580994 1276.851685,723.615234 1274.851562,724.763550 
	C1270.151733,727.349365 1266.075928,729.674683 1262.000000,732.000000 
	C1255.545044,735.479797 1249.095825,738.970093 1242.633911,742.436890 
	C1232.812500,747.706238 1222.982300,752.959229 1212.793579,758.413086 
	C1213.120361,759.509216 1213.512085,760.822876 1214.100952,762.797791 
	C1207.662720,758.959473 1203.488525,761.002136 1200.704346,767.462891 
	C1196.262817,766.839844 1192.492798,768.288818 1190.005615,772.478821 
	C1189.697754,772.997437 1188.979614,773.602783 1188.446411,773.607727 
	C1180.739746,773.679077 1175.754395,779.401245 1168.960571,782.845703 
	C1167.571167,783.726501 1166.785645,784.364197 1166.000000,785.001831 
	C1162.837891,786.516296 1159.675903,788.030701 1155.908447,789.854980 
	C1152.868652,791.443237 1150.434326,792.721680 1148.000000,794.000000 
	C1136.684082,799.936401 1125.356689,805.850952 1114.060303,811.824341 
	C1111.188965,813.342651 1108.148926,814.732544 1105.712402,816.800964 
	C1104.511597,817.820435 1104.510132,820.252808 1103.877075,822.339050 
	C1096.302246,819.895386 1090.848267,823.266846 1086.489014,829.306580 
	C1086.297974,829.571228 1086.053955,829.961182 1085.798462,829.992065 
	C1076.374634,831.128784 1069.358032,837.911499 1060.639893,840.674622 
	C1059.717896,840.966858 1058.668213,840.856201 1057.265869,840.913574 
z"/>
<path fill="#709246" opacity="1.000000" stroke="none" 
	d="
M1370.270630,668.993408 
	C1384.141846,661.011169 1398.324341,653.003601 1412.593628,645.153687 
	C1446.754761,626.360657 1480.956665,607.641663 1515.495361,588.833557 
	C1512.127563,592.239380 1508.517700,595.833923 1504.662109,599.142029 
	C1496.888794,605.811646 1484.977173,604.858215 1478.115601,613.442932 
	C1477.266968,614.504700 1475.075073,614.447510 1473.549316,615.024536 
	C1471.488037,615.804016 1469.468994,616.695251 1466.579956,617.891235 
	C1468.634888,619.377441 1469.738281,620.175415 1471.486694,621.439941 
	C1469.926270,622.022095 1468.639648,623.028015 1467.737305,622.756409 
	C1459.783325,620.363159 1454.521851,625.545166 1448.480347,629.019531 
	C1441.244385,633.180908 1433.625854,636.672729 1426.224609,640.553040 
	C1423.018066,642.234192 1419.940918,644.161804 1416.383057,646.221924 
	C1417.447266,647.663696 1418.450806,649.023010 1419.454224,650.382385 
	C1419.324707,650.778442 1419.195190,651.174561 1419.065552,651.570618 
	C1417.673950,651.114075 1415.890259,651.048340 1414.968262,650.123535 
	C1412.695801,647.843933 1411.006592,648.268982 1408.471558,649.888977 
	C1403.658325,652.964844 1398.434448,655.390076 1393.490479,658.273071 
	C1390.088623,660.256958 1386.874634,662.562500 1383.569946,664.713745 
	C1380.848267,666.485413 1378.250000,668.536926 1375.324341,669.861755 
	C1374.126343,670.404236 1372.210693,669.361450 1370.270630,668.993408 
z"/>
<path fill="#6E9440" opacity="1.000000" stroke="none" 
	d="
M1308.001709,1531.990234 
	C1303.173828,1534.174438 1298.345825,1536.358643 1292.923584,1538.801758 
	C1291.219604,1539.707153 1290.109863,1540.353638 1289.000000,1541.000000 
	C1283.692627,1544.461060 1278.409668,1547.960571 1273.065308,1551.363403 
	C1271.022583,1552.663940 1268.839233,1553.743774 1266.359985,1554.962158 
	C1265.370850,1545.104004 1269.297363,1540.670044 1278.829102,1539.870728 
	C1280.903564,1539.696777 1282.778198,1537.539185 1284.881348,1537.233276 
	C1291.659424,1536.247681 1295.919189,1531.151001 1301.334839,1527.937500 
	C1306.286621,1524.999146 1311.620850,1522.657715 1316.928833,1520.385376 
	C1319.858154,1519.131348 1323.214600,1517.365601 1325.880005,1521.658447 
	C1324.843506,1522.547974 1323.686890,1523.096069 1321.903442,1523.832275 
	C1319.850952,1524.680176 1318.425537,1525.340088 1317.000000,1526.000000 
	C1314.884155,1527.604858 1312.768188,1529.209839 1310.121216,1530.808105 
	C1309.060669,1531.197632 1308.531250,1531.593872 1308.001709,1531.990234 
z"/>
<path fill="#6E943F" opacity="1.000000" stroke="none" 
	d="
M1406.000000,1478.000000 
	C1405.514160,1478.280640 1405.028320,1478.561279 1404.271240,1478.920898 
	C1404.696655,1477.321655 1404.927856,1475.049438 1406.174194,1474.072510 
	C1410.503662,1470.679077 1415.185547,1467.735352 1420.116699,1464.310303 
	C1420.500000,1464.000000 1421.000000,1464.000000 1421.000000,1464.000000 
	C1422.789185,1463.915039 1424.578491,1463.830078 1426.683838,1463.872559 
	C1426.448730,1464.980957 1426.144165,1466.392090 1425.305908,1466.873047 
	C1419.849609,1470.004395 1414.277344,1472.933472 1408.099609,1476.079834 
	C1406.970703,1476.820557 1406.485352,1477.410278 1406.000000,1478.000000 
z"/>
<path fill="#709246" opacity="1.000000" stroke="none" 
	d="
M1516.193115,588.829346 
	C1524.602905,583.881714 1533.427490,578.933411 1542.609375,573.944946 
	C1541.958618,579.050415 1537.087524,579.266113 1533.571777,580.978210 
	C1527.974731,583.703552 1523.712402,589.381836 1516.193115,588.829346 
z"/>
<path fill="#6E943F" opacity="1.000000" stroke="none" 
	d="
M1148.159668,794.313416 
	C1150.434326,792.721680 1152.868652,791.443237 1155.651489,790.082397 
	C1157.238892,790.810364 1158.477905,791.620728 1159.858398,793.049683 
	C1160.000000,794.112122 1160.000000,794.556091 1160.000000,795.000000 
	C1158.678223,795.630005 1157.349243,796.245056 1156.036255,796.892944 
	C1152.762085,798.508606 1150.027710,798.324280 1148.159668,794.313416 
z"/>
<path fill="#6D9440" opacity="1.000000" stroke="none" 
	d="
M1262.144775,732.265747 
	C1266.075928,729.674683 1270.151733,727.349365 1274.613770,725.009644 
	C1276.422119,727.872681 1275.360962,730.168701 1272.617554,730.955139 
	C1269.297241,731.907166 1265.742798,732.042664 1262.144775,732.265747 
z"/>
<path fill="#709246" opacity="1.000000" stroke="none" 
	d="
M1335.672119,700.883179 
	C1334.177856,700.691528 1333.028198,700.459595 1331.878540,700.227661 
	C1331.886108,699.633179 1331.893555,699.038696 1331.901001,698.444214 
	C1333.909668,698.350464 1335.918335,698.256714 1337.927002,698.162964 
	C1337.290283,699.056335 1336.653442,699.949646 1335.672119,700.883179 
z"/>
<path fill="#709246" opacity="1.000000" stroke="none" 
	d="
M1551.625977,568.966248 
	C1550.526367,570.531433 1549.080688,572.142212 1547.317505,573.877686 
	C1546.457275,573.743958 1545.914551,573.485474 1545.141479,573.030884 
	C1547.034058,571.560486 1549.157104,570.286133 1551.625977,568.966248 
z"/>
<path fill="#6E943F" opacity="1.000000" stroke="none" 
	d="
M1166.120117,785.254150 
	C1166.785645,784.364197 1167.571167,783.726501 1168.678467,783.044922 
	C1168.346558,785.406067 1167.693115,787.811157 1167.039673,790.216248 
	C1166.586914,790.105896 1166.134155,789.995544 1165.681396,789.885132 
	C1165.867676,788.425598 1166.054077,786.966003 1166.120117,785.254150 
z"/>
<path fill="#709246" opacity="1.000000" stroke="none" 
	d="
M1420.939941,1463.664429 
	C1421.000000,1464.000000 1420.500000,1464.000000 1420.250000,1464.000000 
	C1418.864502,1464.000000 1417.728882,1464.000000 1416.213867,1464.000000 
	C1418.599243,1460.923584 1418.599243,1460.923584 1420.939941,1463.664429 
z"/>
<path fill="#709246" opacity="1.000000" stroke="none" 
	d="
M1160.148438,795.277954 
	C1160.000000,794.556091 1160.000000,794.112122 1160.000000,793.335327 
	C1161.124146,793.900879 1162.248291,794.799377 1163.372314,795.697876 
	C1162.347168,795.650574 1161.322144,795.603210 1160.148438,795.277954 
z"/>
<path fill="#709246" opacity="1.000000" stroke="none" 
	d="
M1623.425049,1351.419189 
	C1623.730835,1350.523926 1624.293823,1349.728027 1624.856689,1348.932129 
	C1625.253418,1349.375488 1625.650024,1349.818726 1626.046631,1350.262085 
	C1625.258423,1350.680908 1624.470337,1351.099731 1623.425049,1351.419189 
z"/>
<path fill="#709246" opacity="1.000000" stroke="none" 
	d="
M1128.748291,812.799438 
	C1128.079834,812.471252 1127.659912,812.116272 1127.239990,811.761292 
	C1127.967651,811.640747 1128.695190,811.520203 1129.422852,811.399658 
	C1129.280884,811.857361 1129.138794,812.315002 1128.748291,812.799438 
z"/>
<path fill="#709246" opacity="1.000000" stroke="none" 
	d="
M1530.010010,587.039368 
	C1530.380127,586.408997 1530.898193,585.948547 1531.416138,585.488098 
	C1531.611816,585.710754 1531.807373,585.933472 1532.003052,586.156128 
	C1531.388062,586.507202 1530.772949,586.858215 1530.010010,587.039368 
z"/>
<path fill="#709246" opacity="1.000000" stroke="none" 
	d="
M1333.004883,1509.318604 
	C1333.409058,1509.644287 1333.603882,1509.969971 1333.798706,1510.295654 
	C1333.274048,1510.297485 1332.749390,1510.299438 1332.224731,1510.301514 
	C1332.414917,1509.973877 1332.605225,1509.646240 1333.004883,1509.318604 
z"/>
<path fill="#709246" opacity="1.000000" stroke="none" 
	d="
M1232.777832,1569.710449 
	C1233.099121,1569.272705 1233.444580,1569.030029 1233.790039,1568.787354 
	C1233.933350,1569.027710 1234.076660,1569.268066 1234.219971,1569.508301 
	C1233.747314,1569.640747 1233.274780,1569.773193 1232.777832,1569.710449 
z"/>
<path fill="#709246" opacity="1.000000" stroke="none" 
	d="
M922.960876,923.921387 
	C923.463440,924.154236 923.827209,924.515869 924.190918,924.877441 
	C924.079651,924.980286 923.968384,925.083130 923.857178,925.186035 
	C923.512146,924.807373 923.167114,924.428772 922.960876,923.921387 
z"/>
<path fill="#709246" opacity="1.000000" stroke="none" 
	d="
M984.761536,1701.967529 
	C984.894043,1701.843018 985.022034,1701.817261 985.150024,1701.791748 
	C985.019043,1701.883179 984.888062,1701.974609 984.761536,1701.967529 
z"/>
<path fill="#709246" opacity="1.000000" stroke="none" 
	d="
M1180.032715,781.761353 
	C1180.156982,781.893860 1180.182739,782.021851 1180.208374,782.149780 
	C1180.116943,782.018799 1180.025513,781.887817 1180.032715,781.761353 
z"/>
<path fill="#709246" opacity="1.000000" stroke="none" 
	d="
M1441.761475,1451.967529 
	C1441.893921,1451.843140 1442.021851,1451.817383 1442.149780,1451.791748 
	C1442.018799,1451.883179 1441.887817,1451.974609 1441.761475,1451.967529 
z"/>
<path fill="#709246" opacity="1.000000" stroke="none" 
	d="
M999.494995,879.498535 
	C999.512573,879.492981 999.477478,879.504028 999.494995,879.498535 
z"/>
<path fill="#F3FEE3" opacity="1.000000" stroke="none" 
	d="
M144.686310,498.332947 
	C139.734497,504.039856 141.036423,511.185425 141.035950,518.018005 
	C141.017441,779.980164 141.016861,1041.942383 141.056625,1303.904541 
	C141.057205,1307.714600 141.596710,1311.524780 141.902893,1315.767334 
	C141.292618,1315.556152 140.277191,1314.995239 140.118179,1314.251343 
	C139.810776,1312.813232 139.964691,1311.271973 139.964676,1309.773438 
	C139.962677,1042.044067 139.969406,774.314758 139.909485,506.585388 
	C139.908646,502.842712 139.946945,499.567291 144.686310,498.332947 
z"/>
<path fill="#F4FFE3" opacity="1.000000" stroke="none" 
	d="
M903.906128,1726.530518 
	C903.539368,1724.868774 903.012085,1722.746094 903.011780,1720.623413 
	C902.974915,1458.819824 902.976013,1197.016357 902.997620,935.212830 
	C902.997742,933.398132 903.308044,931.583496 903.646301,929.398438 
	C903.890808,930.521790 904.025330,932.015442 904.025391,933.509094 
	C904.034485,1196.863159 904.034119,1460.217285 904.032227,1723.571411 
	C904.032227,1724.404053 904.005798,1725.236816 903.906128,1726.530518 
z"/>
<path fill="#6E9440" opacity="1.000000" stroke="none" 
	d="
M1685.986938,494.624634 
	C1681.595215,494.026276 1677.190552,493.052368 1672.392822,492.039856 
	C1665.440796,493.092102 1659.872070,491.157471 1654.461548,487.315155 
	C1650.305420,484.363678 1645.366211,482.527710 1640.827148,480.098846 
	C1635.747437,477.380737 1630.726074,474.553497 1625.379150,471.608337 
	C1626.029663,470.041260 1626.606567,468.651794 1627.521851,466.447113 
	C1621.890747,467.397736 1616.309204,468.065765 1613.747925,462.692505 
	C1613.040405,461.208191 1616.152344,457.903198 1617.545166,455.373199 
	C1623.796143,458.748138 1629.343506,461.810425 1634.954102,464.752380 
	C1639.978638,467.387024 1646.286987,468.778259 1649.868408,472.694183 
	C1656.199219,479.616455 1665.782227,480.434540 1672.245605,486.623535 
	C1673.344849,487.676117 1675.465210,488.289948 1677.012207,488.128998 
	C1681.533691,487.658539 1684.696167,489.603119 1685.986938,494.624634 
z"/>
<path fill="#6D9440" opacity="1.000000" stroke="none" 
	d="
M1598.639404,547.039795 
	C1598.703003,548.752930 1598.735107,551.850159 1598.051147,552.017273 
	C1595.309937,552.687073 1592.346680,552.448120 1589.232666,552.273804 
	C1592.093018,550.360657 1595.185913,548.718872 1598.639404,547.039795 
z"/>
<path fill="#6E943F" opacity="1.000000" stroke="none" 
	d="
M1661.647705,512.012329 
	C1660.891968,513.935120 1659.783813,515.867798 1658.226440,517.602539 
	C1657.851440,515.938171 1657.925781,514.471741 1658.000000,513.005310 
	C1659.098389,512.677612 1660.196899,512.349976 1661.647705,512.012329 
z"/>
<path fill="#F3FEE3" opacity="1.000000" stroke="none" 
	d="
M145.799286,1318.488159 
	C148.314194,1319.563965 151.035797,1320.923584 153.889954,1322.593750 
	C151.350311,1321.526733 148.678146,1320.149292 145.799286,1318.488159 
z"/>
<path fill="#F4FFE3" opacity="1.000000" stroke="none" 
	d="
M899.149902,1732.463867 
	C900.327454,1731.790771 901.702881,1731.386353 903.450562,1730.980469 
	C903.822815,1732.117065 903.822815,1733.255249 903.822815,1735.022827 
	C902.113770,1734.148193 900.730713,1733.440430 899.149902,1732.463867 
z"/>
<path fill="#6F9440" opacity="1.000000" stroke="none" 
	d="
M1657.699219,513.129150 
	C1657.925781,514.471741 1657.851440,515.938171 1657.888550,517.702271 
	C1656.864746,518.038574 1655.729370,518.077148 1654.296875,518.057861 
	C1655.132690,516.417603 1656.265503,514.835266 1657.699219,513.129150 
z"/>
<path fill="#F3FEE3" opacity="1.000000" stroke="none" 
	d="
M154.787872,1323.457764 
	C156.638092,1324.204590 158.702499,1325.229980 160.874084,1326.587158 
	C158.988205,1325.858032 156.995132,1324.797241 154.787872,1323.457764 
z"/>
<path fill="#6E943F" opacity="1.000000" stroke="none" 
	d="
M1651.750732,518.894165 
	C1651.555786,519.709412 1651.111694,520.423706 1650.667603,521.137939 
	C1650.166260,520.614624 1649.664917,520.091248 1649.081299,519.281982 
	C1649.833008,518.928467 1650.667236,518.860840 1651.750732,518.894165 
z"/>
<path fill="#F3FEE3" opacity="1.000000" stroke="none" 
	d="
M143.788544,1317.384399 
	C143.961517,1317.286011 144.279175,1317.430908 144.793701,1317.751099 
	C144.638107,1317.826904 144.285660,1317.727295 143.788544,1317.384399 
z"/>
<path fill="#6F9440" opacity="1.000000" stroke="none" 
	d="
M1289.260498,1541.154053 
	C1290.109863,1540.353638 1291.219604,1539.707153 1292.664795,1539.030396 
	C1291.840332,1539.769409 1290.680664,1540.538818 1289.260498,1541.154053 
z"/>
<path fill="#6F9440" opacity="1.000000" stroke="none" 
	d="
M1317.359741,1525.989746 
	C1318.425537,1525.340088 1319.850952,1524.680176 1321.635742,1524.010132 
	C1320.569946,1524.659790 1319.144653,1525.319702 1317.359741,1525.989746 
z"/>
<path fill="#6F9440" opacity="1.000000" stroke="none" 
	d="
M1308.272705,1531.912964 
	C1308.531250,1531.593872 1309.060669,1531.197632 1309.793945,1530.898804 
	C1309.513184,1531.276123 1309.028442,1531.555908 1308.272705,1531.912964 
z"/>
<path fill="#6F9440" opacity="1.000000" stroke="none" 
	d="
M1406.271973,1477.884766 
	C1406.485352,1477.410278 1406.970703,1476.820557 1407.728027,1476.115479 
	C1407.514771,1476.589844 1407.029419,1477.179688 1406.271973,1477.884766 
z"/>
<path fill="#709246" opacity="1.000000" stroke="none" 
	d="
M1655.951294,524.445984 
	C1655.617432,523.658386 1655.557007,522.839844 1655.496582,522.021240 
	C1656.078613,522.063416 1656.660767,522.105591 1657.242798,522.147766 
	C1656.903442,522.903503 1656.564087,523.659241 1655.951294,524.445984 
z"/>
<path fill="#6E9440" opacity="1.000000" stroke="none" 
	d="
M1679.716675,506.322327 
	C1679.241455,505.934662 1678.988892,505.490509 1678.736328,505.046326 
	C1679.140259,504.942291 1679.544067,504.838226 1679.947998,504.734192 
	C1679.945068,505.244751 1679.942139,505.755310 1679.716675,506.322327 
z"/>
</svg>