<svg version="1.1" id="Layer_1" xmlns="http://www.w3.org/2000/svg" xmlns:xlink="http://www.w3.org/1999/xlink" x="0px" y="0px"
	 width="100%" viewBox="0 0 1814 1814" enable-background="new 0 0 1814 1814" xml:space="preserve">
<path fill="#FFFFFF" opacity="1.000000" stroke="none" 
	d="
M966.000000,1815.000000 
	C644.000000,1815.000000 322.500000,1815.000000 1.000000,1815.000000 
	C1.000000,1210.333374 1.000000,605.666687 1.000000,1.000000 
	C605.666687,1.000000 1210.333374,1.000000 1815.000000,1.000000 
	C1815.000000,605.666687 1815.000000,1210.333374 1815.000000,1815.000000 
	C1532.166626,1815.000000 1249.333374,1815.000000 966.000000,1815.000000 
M875.420959,206.915741 
	C816.333069,239.405533 757.253723,271.910797 698.155518,304.381866 
	C583.019714,367.642426 467.880219,430.896454 352.697479,494.071564 
	C349.254456,495.959991 347.882050,498.031372 347.884552,502.128235 
	C348.004120,697.112122 348.007721,892.096130 347.869873,1087.079956 
	C347.866791,1091.466309 349.460999,1093.457764 353.037872,1095.420044 
	C449.819000,1148.514038 546.532349,1201.731689 643.278809,1254.888916 
	C730.106506,1302.596313 816.971619,1350.235718 903.755493,1398.022583 
	C906.938416,1399.775146 909.181213,1399.801147 912.337341,1398.060913 
	C974.594238,1363.732178 1036.923950,1329.535645 1099.227905,1295.292114 
	C1220.629028,1228.567627 1342.016113,1161.817749 1463.459106,1095.169800 
	C1466.746460,1093.365723 1468.118652,1091.553833 1468.116089,1087.583130 
	C1467.991821,892.265991 1467.997314,696.948730 1468.088501,501.631500 
	C1468.090210,498.003235 1467.047363,496.068634 1463.799683,494.290253 
	C1387.129272,452.305054 1310.524170,410.200684 1233.916748,368.100403 
	C1126.520508,309.079803 1019.123962,250.059448 911.782349,190.939346 
	C908.852356,189.325577 906.763916,189.569519 904.055176,191.108948 
	C894.790649,196.373917 885.402039,201.420334 875.420959,206.915741 
M751.407593,1505.866089 
	C733.641479,1513.869873 729.691833,1529.322144 739.323730,1549.005371 
	C736.628662,1555.566895 733.614075,1560.980713 732.230591,1566.783569 
	C730.657349,1573.382080 734.459167,1578.460571 739.837585,1582.135742 
	C738.144653,1583.656738 736.730347,1584.824585 735.432373,1586.109863 
	C724.363586,1597.068970 726.817993,1612.314941 740.911072,1618.810913 
	C752.680603,1624.235840 765.273621,1624.123901 777.667603,1622.303833 
	C783.910583,1621.387085 790.188293,1618.918457 795.805115,1615.936279 
	C804.689575,1611.219727 808.857117,1601.652222 807.139404,1591.876465 
	C805.480530,1582.435547 798.742004,1577.817749 790.129333,1575.870483 
	C784.822021,1574.670410 779.274963,1574.433594 773.815979,1574.026245 
	C767.184937,1573.531494 760.496765,1573.634888 753.900146,1572.888672 
	C746.351318,1572.034790 743.827637,1566.512695 747.563843,1559.955444 
	C748.134888,1558.953369 748.829651,1558.021851 749.408936,1557.145996 
	C764.196655,1562.568970 778.620789,1562.963013 790.678711,1551.871094 
	C801.430054,1541.981201 801.607361,1529.488281 795.153503,1516.067139 
	C799.709229,1516.067139 803.751953,1516.067139 807.714233,1516.067139 
	C807.714233,1511.853882 807.714233,1508.241577 807.714233,1504.151489 
	C805.212708,1504.151489 802.920471,1504.167847 800.628479,1504.148438 
	C792.134338,1504.076660 783.564819,1504.663940 775.168030,1503.719727 
	C767.221863,1502.826172 759.630432,1502.797607 751.407593,1505.866089 
M541.920044,1545.500000 
	C541.920044,1559.627075 541.920044,1573.754150 541.920044,1588.749146 
	C555.052246,1588.115845 567.935486,1588.414551 580.536011,1586.670410 
	C599.205383,1584.086304 612.274109,1573.500854 617.668091,1555.029053 
	C622.046509,1540.034790 621.942200,1524.715332 617.781494,1509.690796 
	C614.044250,1496.195679 605.458984,1486.633179 591.905823,1482.249878 
	C575.564697,1476.964844 558.731873,1479.617432 541.920044,1478.958740 
	C541.920044,1501.250488 541.920044,1522.875244 541.920044,1545.500000 
M1033.859741,1504.396973 
	C1029.246460,1505.604736 1024.633057,1506.812500 1020.145142,1507.987549 
	C1020.145142,1512.630127 1020.145142,1516.727051 1020.145142,1520.164673 
	C1028.849487,1518.525269 1037.382202,1516.220215 1046.051147,1515.453369 
	C1058.295410,1514.369873 1068.294189,1518.955933 1067.307739,1534.759033 
	C1067.228149,1536.034912 1067.297363,1537.320068 1067.297363,1538.992310 
	C1061.258057,1538.992310 1055.581665,1538.526245 1050.015015,1539.108643 
	C1042.814697,1539.861938 1035.397583,1540.562012 1028.619873,1542.881104 
	C1017.119263,1546.816162 1011.393616,1557.790527 1013.151917,1569.933838 
	C1014.751404,1580.980713 1022.327393,1587.795044 1034.544678,1589.386353 
	C1045.537109,1590.817993 1055.240479,1587.890381 1063.906982,1581.135620 
	C1065.227051,1580.106934 1066.619263,1579.170776 1068.626465,1577.724365 
	C1068.828979,1581.770386 1068.983765,1584.862915 1069.140747,1588.000732 
	C1073.491699,1588.000732 1077.621094,1588.000732 1081.862915,1588.000732 
	C1081.862915,1567.529175 1082.257446,1547.223633 1081.697876,1526.944214 
	C1081.414062,1516.658081 1075.729614,1509.267822 1065.711792,1505.594604 
	C1055.493530,1501.847656 1045.128052,1502.746826 1033.859741,1504.396973 
M1212.483154,1504.144653 
	C1206.714844,1504.144653 1200.946533,1504.144653 1195.199219,1504.144653 
	C1195.199219,1508.562866 1195.199219,1512.340088 1195.199219,1516.658936 
	C1202.973267,1516.658936 1210.543945,1516.658936 1218.458496,1516.658936 
	C1218.458496,1519.005371 1218.442383,1520.808838 1218.461060,1522.611938 
	C1218.609253,1536.937012 1218.420898,1551.276611 1219.028687,1565.582397 
	C1219.487549,1576.383179 1225.007202,1584.269653 1235.693359,1587.342773 
	C1247.295044,1590.679199 1258.979736,1589.612671 1270.508301,1586.948608 
	C1270.508301,1582.758057 1270.508301,1578.973877 1270.508301,1575.355957 
	C1263.395264,1575.908447 1256.490845,1576.838257 1249.580811,1576.884155 
	C1240.541138,1576.944092 1233.917847,1571.759155 1233.536987,1563.086670 
	C1232.859497,1547.662476 1233.346558,1532.187256 1233.346558,1516.336426 
	C1245.798706,1516.336426 1258.076538,1516.336426 1270.307373,1516.336426 
	C1270.307373,1512.055786 1270.307373,1508.190430 1270.307373,1503.895020 
	C1257.645630,1503.895020 1245.408569,1503.895020 1232.919800,1503.895020 
	C1232.919800,1494.992554 1232.919800,1486.527954 1232.919800,1477.629395 
	C1227.948608,1478.919067 1223.333740,1480.116211 1218.336914,1481.412598 
	C1218.336914,1488.970459 1218.336914,1496.391113 1218.336914,1504.144531 
	C1216.425903,1504.144531 1214.954712,1504.144531 1212.483154,1504.144653 
M936.452271,1538.499756 
	C936.611572,1547.649902 936.479431,1556.816895 937.005432,1565.945801 
	C937.634155,1576.858276 944.237183,1585.188721 954.447815,1587.678345 
	C965.773376,1590.439941 977.168213,1589.640869 988.406372,1586.986206 
	C988.406372,1582.793823 988.406372,1578.906860 988.406372,1575.301514 
	C981.673706,1575.878906 975.251343,1576.794556 968.815491,1576.900757 
	C957.658386,1577.085205 951.404785,1571.055908 951.141785,1559.883545 
	C950.863647,1548.069214 951.038025,1536.244263 951.016785,1524.423950 
	C951.012085,1521.836548 951.016052,1519.249146 951.016052,1516.267822 
	C963.932556,1516.267822 976.195801,1516.267822 988.439819,1516.267822 
	C988.439819,1512.099609 988.439819,1508.340698 988.439819,1504.178955 
	C975.921143,1504.178955 963.682068,1504.178955 951.040771,1504.178955 
	C951.040771,1495.183594 951.040771,1486.588623 951.040771,1477.576782 
	C945.929688,1478.913940 941.306885,1480.123291 936.333252,1481.424316 
	C936.333252,1488.979370 936.333252,1496.394531 936.333252,1504.274048 
	C928.360291,1504.274048 920.786682,1504.274048 913.170837,1504.274048 
	C913.170837,1508.532104 913.170837,1512.310059 913.170837,1516.614746 
	C920.917236,1516.614746 928.486328,1516.614746 936.452393,1516.614746 
	C936.452393,1523.924072 936.452393,1530.711914 936.452271,1538.499756 
M1112.457275,1578.420044 
	C1112.457275,1581.540771 1112.457275,1584.661499 1112.457275,1587.863037 
	C1117.661499,1587.863037 1122.375732,1587.863037 1127.061768,1587.863037 
	C1127.113037,1587.210938 1127.161255,1586.883179 1127.161499,1586.555420 
	C1127.172363,1570.558594 1127.168701,1554.561890 1127.204712,1538.565063 
	C1127.208008,1537.090576 1126.925049,1535.207397 1127.686157,1534.207642 
	C1133.250854,1526.899048 1139.048096,1519.592773 1148.050293,1516.380249 
	C1157.163940,1513.128296 1164.298584,1517.640259 1166.031128,1527.208252 
	C1166.556030,1530.106201 1166.793335,1533.056030 1167.155151,1535.925293 
	C1171.921997,1535.925293 1176.510986,1535.925293 1181.759033,1535.925293 
	C1181.148193,1530.835571 1181.019165,1525.973755 1179.915039,1521.344482 
	C1177.586304,1511.581055 1171.373779,1505.207520 1161.393555,1503.375732 
	C1149.997314,1501.284180 1140.484863,1505.527954 1132.391968,1513.357178 
	C1130.591675,1515.098999 1129.117798,1517.178467 1127.493774,1519.102539 
	C1126.969727,1518.774902 1126.445801,1518.447388 1125.921875,1518.119873 
	C1125.921875,1513.557129 1125.921875,1508.994507 1125.921875,1504.362305 
	C1121.188110,1504.362305 1117.091797,1504.362305 1112.457275,1504.362305 
	C1112.457275,1528.866333 1112.457275,1553.155029 1112.457275,1578.420044 
M879.509277,1575.995483 
	C876.532471,1575.995483 873.555725,1575.995483 870.103271,1575.995483 
	C870.103271,1551.849854 870.103271,1528.105835 870.103271,1504.402832 
	C856.850220,1504.402832 844.078552,1504.402832 831.117065,1504.402832 
	C831.117065,1508.437134 831.117065,1512.221558 831.117065,1516.619507 
	C839.263611,1516.619507 847.341370,1516.619507 855.534363,1516.619507 
	C855.534363,1536.686279 855.534363,1556.140381 855.534363,1576.145142 
	C846.318298,1576.145142 837.247192,1576.145142 828.373291,1576.145142 
	C828.373291,1580.456177 828.373291,1584.211792 828.373291,1587.928955 
	C850.789917,1587.928955 872.892395,1587.928955 895.117310,1587.928955 
	C895.117310,1583.889771 895.117310,1580.100830 895.117310,1575.995483 
	C890.123352,1575.995483 885.315552,1575.995483 879.509277,1575.995483 
M683.317078,1552.500488 
	C683.317078,1536.530273 683.317078,1520.560181 683.317078,1504.449707 
	C669.988159,1504.449707 657.097839,1504.449707 644.125732,1504.449707 
	C644.125732,1508.523804 644.125732,1512.299438 644.125732,1516.702026 
	C652.378784,1516.702026 660.444153,1516.702026 668.470703,1516.702026 
	C668.470703,1536.769897 668.470703,1556.207764 668.470703,1576.036743 
	C659.318298,1576.036743 650.381775,1576.036743 641.427612,1576.036743 
	C641.427612,1580.302612 641.427612,1584.164551 641.427612,1587.865723 
	C663.871582,1587.865723 685.952637,1587.865723 708.076355,1587.865723 
	C708.076355,1583.775879 708.076355,1580.000488 708.076355,1575.852905 
	C699.734558,1575.852905 691.623718,1575.852905 683.317017,1575.852905 
	C683.317017,1568.152832 683.317017,1560.826660 683.317078,1552.500488 
M853.545593,1471.988281 
	C848.283142,1477.888428 847.982300,1483.919312 852.713867,1488.660522 
	C857.113892,1493.069580 863.503784,1493.254395 868.382935,1489.113892 
	C872.628723,1485.510864 873.447144,1478.952515 870.233093,1474.286621 
	C866.553040,1468.944458 860.395996,1467.907471 853.545593,1471.988281 
M682.608154,1487.959473 
	C686.902588,1480.953125 685.678406,1474.586304 679.315430,1470.834351 
	C673.648621,1467.492798 666.885132,1469.561401 663.668274,1475.619995 
	C661.234558,1480.203613 662.305176,1485.567505 666.365112,1489.131714 
	C671.101501,1493.289917 676.031433,1493.097534 682.608154,1487.959473 
z"/>
<path fill="#6E9442" opacity="1.000000" stroke="none" 
	d="
M875.740845,206.732925 
	C885.402039,201.420334 894.790649,196.373917 904.055176,191.108948 
	C906.763916,189.569519 908.852356,189.325577 911.782349,190.939346 
	C1019.123962,250.059448 1126.520508,309.079803 1233.916748,368.100403 
	C1310.524170,410.200684 1387.129272,452.305054 1463.799683,494.290253 
	C1467.047363,496.068634 1468.090210,498.003235 1468.088501,501.631500 
	C1467.997314,696.948730 1467.991821,892.265991 1468.116089,1087.583130 
	C1468.118652,1091.553833 1466.746460,1093.365723 1463.459106,1095.169800 
	C1342.016113,1161.817749 1220.629028,1228.567627 1099.227905,1295.292114 
	C1036.923950,1329.535645 974.594238,1363.732178 912.337341,1398.060913 
	C909.181213,1399.801147 906.938416,1399.775146 903.755493,1398.022583 
	C816.971619,1350.235718 730.106506,1302.596313 643.278809,1254.888916 
	C546.532349,1201.731689 449.819000,1148.514038 353.037872,1095.420044 
	C349.460999,1093.457764 347.866791,1091.466309 347.869873,1087.079956 
	C348.007721,892.096130 348.004120,697.112122 347.884552,502.128235 
	C347.882050,498.031372 349.254456,495.959991 352.697479,494.071564 
	C467.880219,430.896454 583.019714,367.642426 698.155518,304.381866 
	C757.253723,271.910797 816.333069,239.405533 875.740845,206.732925 
M1251.478638,395.992706 
	C1250.316650,395.338562 1249.160522,394.673798 1247.991821,394.031738 
	C1136.508789,332.782074 1025.013428,271.554962 913.588013,210.200699 
	C909.624329,208.018158 906.671448,207.912537 902.654419,210.126312 
	C800.438293,266.457489 698.148682,322.655060 595.867676,378.868378 
	C519.993164,420.568817 444.119965,462.271698 368.207458,503.902954 
	C365.299438,505.497772 363.924866,507.147552 363.926880,510.753662 
	C364.032043,699.896301 364.028839,889.038940 363.932251,1078.181641 
	C363.930359,1081.842285 365.057404,1083.701904 368.281708,1085.467285 
	C439.694977,1124.567383 511.034668,1163.802002 582.389282,1203.009155 
	C688.617554,1261.378418 794.845947,1319.747437 901.080688,1378.104980 
	C902.464172,1378.864868 903.930786,1379.473633 905.995117,1380.455811 
	C905.995117,1376.697754 905.995117,1373.736694 905.995117,1370.775635 
	C905.995300,1184.465942 906.009766,998.156250 905.901428,811.846619 
	C905.899048,807.817383 907.155762,805.747192 910.669739,803.826416 
	C964.430298,774.439392 1018.102478,744.890930 1071.802246,715.392822 
	C1185.038330,653.190552 1298.278931,590.996704 1411.515991,528.796631 
	C1424.892944,521.448792 1438.260742,514.084351 1452.307007,506.356750 
	C1385.142334,469.434204 1318.641113,432.876404 1251.478638,395.992706 
z"/>
<path fill="#050505" opacity="1.000000" stroke="none" 
	d="
M751.755249,1505.696899 
	C759.630432,1502.797607 767.221863,1502.826172 775.168030,1503.719727 
	C783.564819,1504.663940 792.134338,1504.076660 800.628479,1504.148438 
	C802.920471,1504.167847 805.212708,1504.151489 807.714233,1504.151489 
	C807.714233,1508.241577 807.714233,1511.853882 807.714233,1516.067139 
	C803.751953,1516.067139 799.709229,1516.067139 795.153503,1516.067139 
	C801.607361,1529.488281 801.430054,1541.981201 790.678711,1551.871094 
	C778.620789,1562.963013 764.196655,1562.568970 749.408936,1557.145996 
	C748.829651,1558.021851 748.134888,1558.953369 747.563843,1559.955444 
	C743.827637,1566.512695 746.351318,1572.034790 753.900146,1572.888672 
	C760.496765,1573.634888 767.184937,1573.531494 773.815979,1574.026245 
	C779.274963,1574.433594 784.822021,1574.670410 790.129333,1575.870483 
	C798.742004,1577.817749 805.480530,1582.435547 807.139404,1591.876465 
	C808.857117,1601.652222 804.689575,1611.219727 795.805115,1615.936279 
	C790.188293,1618.918457 783.910583,1621.387085 777.667603,1622.303833 
	C765.273621,1624.123901 752.680603,1624.235840 740.911072,1618.810913 
	C726.817993,1612.314941 724.363586,1597.068970 735.432373,1586.109863 
	C736.730347,1584.824585 738.144653,1583.656738 739.837585,1582.135742 
	C734.459167,1578.460571 730.657349,1573.382080 732.230591,1566.783569 
	C733.614075,1560.980713 736.628662,1555.566895 739.323730,1549.005371 
	C729.691833,1529.322144 733.641479,1513.869873 751.755249,1505.696899 
M778.306213,1545.893433 
	C779.223389,1544.939087 780.259705,1544.072510 781.037964,1543.015747 
	C785.522156,1536.927612 786.041443,1528.136230 782.068665,1521.915894 
	C777.726257,1515.116821 771.075012,1513.058838 763.502197,1514.131226 
	C756.320007,1515.148315 751.458496,1519.402100 749.324097,1526.414795 
	C747.142700,1533.581543 749.530273,1541.606323 754.904724,1545.819580 
	C761.279480,1550.817017 769.423706,1551.004150 778.306213,1545.893433 
M759.516418,1586.130371 
	C752.128479,1585.823486 747.395264,1588.845703 745.027222,1595.382080 
	C742.630432,1601.997925 744.639893,1607.126831 751.384766,1609.185547 
	C756.394958,1610.714844 761.778992,1611.601562 767.011841,1611.673950 
	C773.778259,1611.767944 780.670349,1611.214478 786.572815,1607.090210 
	C790.774536,1604.154053 792.800842,1600.108276 791.849304,1595.058716 
	C790.991882,1590.508423 787.347351,1588.432251 783.216431,1587.955444 
	C775.651917,1587.083008 768.026733,1586.737061 759.516418,1586.130371 
z"/>
<path fill="#040404" opacity="1.000000" stroke="none" 
	d="
M541.920044,1545.000000 
	C541.920044,1522.875244 541.920044,1501.250488 541.920044,1478.958740 
	C558.731873,1479.617432 575.564697,1476.964844 591.905823,1482.249878 
	C605.458984,1486.633179 614.044250,1496.195679 617.781494,1509.690796 
	C621.942200,1524.715332 622.046509,1540.034790 617.668091,1555.029053 
	C612.274109,1573.500854 599.205383,1584.086304 580.536011,1586.670410 
	C567.935486,1588.414551 555.052246,1588.115845 541.920044,1588.749146 
	C541.920044,1573.754150 541.920044,1559.627075 541.920044,1545.000000 
M577.001221,1492.073120 
	C570.413025,1492.073120 563.824890,1492.073120 557.204224,1492.073120 
	C557.204224,1519.704590 557.204224,1547.381470 557.204224,1574.971680 
	C563.065369,1574.971680 568.598694,1575.425049 574.031921,1574.880249 
	C586.639343,1573.615845 596.333313,1567.953491 601.239929,1555.553955 
	C605.668579,1544.361938 605.690857,1532.843872 604.241638,1521.180298 
	C602.337952,1505.859741 595.974426,1495.042236 577.001221,1492.073120 
z"/>
<path fill="#050505" opacity="1.000000" stroke="none" 
	d="
M1034.284912,1504.318115 
	C1045.128052,1502.746826 1055.493530,1501.847656 1065.711792,1505.594604 
	C1075.729614,1509.267822 1081.414062,1516.658081 1081.697876,1526.944214 
	C1082.257446,1547.223633 1081.862915,1567.529175 1081.862915,1588.000732 
	C1077.621094,1588.000732 1073.491699,1588.000732 1069.140747,1588.000732 
	C1068.983765,1584.862915 1068.828979,1581.770386 1068.626465,1577.724365 
	C1066.619263,1579.170776 1065.227051,1580.106934 1063.906982,1581.135620 
	C1055.240479,1587.890381 1045.537109,1590.817993 1034.544678,1589.386353 
	C1022.327393,1587.795044 1014.751404,1580.980713 1013.151917,1569.933838 
	C1011.393616,1557.790527 1017.119263,1546.816162 1028.619873,1542.881104 
	C1035.397583,1540.562012 1042.814697,1539.861938 1050.015015,1539.108643 
	C1055.581665,1538.526245 1061.258057,1538.992310 1067.297363,1538.992310 
	C1067.297363,1537.320068 1067.228149,1536.034912 1067.307739,1534.759033 
	C1068.294189,1518.955933 1058.295410,1514.369873 1046.051147,1515.453369 
	C1037.382202,1516.220215 1028.849487,1518.525269 1020.145142,1520.164673 
	C1020.145142,1516.727051 1020.145142,1512.630127 1020.145142,1507.987549 
	C1024.633057,1506.812500 1029.246460,1505.604736 1034.284912,1504.318115 
M1031.933960,1555.474854 
	C1027.692139,1560.446167 1027.049194,1566.100830 1029.971191,1571.688843 
	C1032.947632,1577.380615 1038.673706,1577.983521 1044.327881,1577.371094 
	C1052.978149,1576.434082 1059.734131,1571.544678 1066.069214,1566.037476 
	C1066.722534,1565.469727 1067.218384,1564.360840 1067.241455,1563.488281 
	C1067.358765,1559.076782 1067.295410,1554.660400 1067.295410,1550.183838 
	C1059.402832,1550.183838 1052.043823,1549.635620 1044.821533,1550.392334 
	C1040.588013,1550.835938 1036.572388,1553.358398 1031.933960,1555.474854 
z"/>
<path fill="#090909" opacity="1.000000" stroke="none" 
	d="
M1212.983398,1504.144531 
	C1214.954712,1504.144531 1216.425903,1504.144531 1218.336914,1504.144531 
	C1218.336914,1496.391113 1218.336914,1488.970459 1218.336914,1481.412598 
	C1223.333740,1480.116211 1227.948608,1478.919067 1232.919800,1477.629395 
	C1232.919800,1486.527954 1232.919800,1494.992554 1232.919800,1503.895020 
	C1245.408569,1503.895020 1257.645630,1503.895020 1270.307373,1503.895020 
	C1270.307373,1508.190430 1270.307373,1512.055786 1270.307373,1516.336426 
	C1258.076538,1516.336426 1245.798706,1516.336426 1233.346558,1516.336426 
	C1233.346558,1532.187256 1232.859497,1547.662476 1233.536987,1563.086670 
	C1233.917847,1571.759155 1240.541138,1576.944092 1249.580811,1576.884155 
	C1256.490845,1576.838257 1263.395264,1575.908447 1270.508301,1575.355957 
	C1270.508301,1578.973877 1270.508301,1582.758057 1270.508301,1586.948608 
	C1258.979736,1589.612671 1247.295044,1590.679199 1235.693359,1587.342773 
	C1225.007202,1584.269653 1219.487549,1576.383179 1219.028687,1565.582397 
	C1218.420898,1551.276611 1218.609253,1536.937012 1218.461060,1522.611938 
	C1218.442383,1520.808838 1218.458496,1519.005371 1218.458496,1516.658936 
	C1210.543945,1516.658936 1202.973267,1516.658936 1195.199219,1516.658936 
	C1195.199219,1512.340088 1195.199219,1508.562866 1195.199219,1504.144653 
	C1200.946533,1504.144653 1206.714844,1504.144653 1212.983398,1504.144531 
z"/>
<path fill="#090909" opacity="1.000000" stroke="none" 
	d="
M936.452332,1537.999756 
	C936.452393,1530.711914 936.452393,1523.924072 936.452393,1516.614746 
	C928.486328,1516.614746 920.917236,1516.614746 913.170837,1516.614746 
	C913.170837,1512.310059 913.170837,1508.532104 913.170837,1504.274048 
	C920.786682,1504.274048 928.360291,1504.274048 936.333252,1504.274048 
	C936.333252,1496.394531 936.333252,1488.979370 936.333252,1481.424316 
	C941.306885,1480.123291 945.929688,1478.913940 951.040771,1477.576782 
	C951.040771,1486.588623 951.040771,1495.183594 951.040771,1504.178955 
	C963.682068,1504.178955 975.921143,1504.178955 988.439819,1504.178955 
	C988.439819,1508.340698 988.439819,1512.099609 988.439819,1516.267822 
	C976.195801,1516.267822 963.932556,1516.267822 951.016052,1516.267822 
	C951.016052,1519.249146 951.012085,1521.836548 951.016785,1524.423950 
	C951.038025,1536.244263 950.863647,1548.069214 951.141785,1559.883545 
	C951.404785,1571.055908 957.658386,1577.085205 968.815491,1576.900757 
	C975.251343,1576.794556 981.673706,1575.878906 988.406372,1575.301514 
	C988.406372,1578.906860 988.406372,1582.793823 988.406372,1586.986206 
	C977.168213,1589.640869 965.773376,1590.439941 954.447815,1587.678345 
	C944.237183,1585.188721 937.634155,1576.858276 937.005432,1565.945801 
	C936.479431,1556.816895 936.611572,1547.649902 936.452332,1537.999756 
z"/>
<path fill="#070707" opacity="1.000000" stroke="none" 
	d="
M1112.457275,1577.931885 
	C1112.457275,1553.155029 1112.457275,1528.866333 1112.457275,1504.362305 
	C1117.091797,1504.362305 1121.188110,1504.362305 1125.921875,1504.362305 
	C1125.921875,1508.994507 1125.921875,1513.557129 1125.921875,1518.119873 
	C1126.445801,1518.447388 1126.969727,1518.774902 1127.493774,1519.102539 
	C1129.117798,1517.178467 1130.591675,1515.098999 1132.391968,1513.357178 
	C1140.484863,1505.527954 1149.997314,1501.284180 1161.393555,1503.375732 
	C1171.373779,1505.207520 1177.586304,1511.581055 1179.915039,1521.344482 
	C1181.019165,1525.973755 1181.148193,1530.835571 1181.759033,1535.925293 
	C1176.510986,1535.925293 1171.921997,1535.925293 1167.155151,1535.925293 
	C1166.793335,1533.056030 1166.556030,1530.106201 1166.031128,1527.208252 
	C1164.298584,1517.640259 1157.163940,1513.128296 1148.050293,1516.380249 
	C1139.048096,1519.592773 1133.250854,1526.899048 1127.686157,1534.207642 
	C1126.925049,1535.207397 1127.208008,1537.090576 1127.204712,1538.565063 
	C1127.168701,1554.561890 1127.172363,1570.558594 1127.161499,1586.555420 
	C1127.161255,1586.883179 1127.113037,1587.210938 1127.061768,1587.863037 
	C1122.375732,1587.863037 1117.661499,1587.863037 1112.457275,1587.863037 
	C1112.457275,1584.661499 1112.457275,1581.540771 1112.457275,1577.931885 
z"/>
<path fill="#020202" opacity="1.000000" stroke="none" 
	d="
M880.008484,1575.995483 
	C885.315552,1575.995483 890.123352,1575.995483 895.117310,1575.995483 
	C895.117310,1580.100830 895.117310,1583.889771 895.117310,1587.928955 
	C872.892395,1587.928955 850.789917,1587.928955 828.373291,1587.928955 
	C828.373291,1584.211792 828.373291,1580.456177 828.373291,1576.145142 
	C837.247192,1576.145142 846.318298,1576.145142 855.534363,1576.145142 
	C855.534363,1556.140381 855.534363,1536.686279 855.534363,1516.619507 
	C847.341370,1516.619507 839.263611,1516.619507 831.117065,1516.619507 
	C831.117065,1512.221558 831.117065,1508.437134 831.117065,1504.402832 
	C844.078552,1504.402832 856.850220,1504.402832 870.103271,1504.402832 
	C870.103271,1528.105835 870.103271,1551.849854 870.103271,1575.995483 
	C873.555725,1575.995483 876.532471,1575.995483 880.008484,1575.995483 
z"/>
<path fill="#030303" opacity="1.000000" stroke="none" 
	d="
M683.317017,1553.000488 
	C683.317017,1560.826660 683.317017,1568.152832 683.317017,1575.852905 
	C691.623718,1575.852905 699.734558,1575.852905 708.076355,1575.852905 
	C708.076355,1580.000488 708.076355,1583.775879 708.076355,1587.865723 
	C685.952637,1587.865723 663.871582,1587.865723 641.427612,1587.865723 
	C641.427612,1584.164551 641.427612,1580.302612 641.427612,1576.036743 
	C650.381775,1576.036743 659.318298,1576.036743 668.470703,1576.036743 
	C668.470703,1556.207764 668.470703,1536.769897 668.470703,1516.702026 
	C660.444153,1516.702026 652.378784,1516.702026 644.125732,1516.702026 
	C644.125732,1512.299438 644.125732,1508.523804 644.125732,1504.449707 
	C657.097839,1504.449707 669.988159,1504.449707 683.317078,1504.449707 
	C683.317078,1520.560181 683.317078,1536.530273 683.317017,1553.000488 
z"/>
<path fill="#060606" opacity="1.000000" stroke="none" 
	d="
M853.856323,1471.784424 
	C860.395996,1467.907471 866.553040,1468.944458 870.233093,1474.286621 
	C873.447144,1478.952515 872.628723,1485.510864 868.382935,1489.113892 
	C863.503784,1493.254395 857.113892,1493.069580 852.713867,1488.660522 
	C847.982300,1483.919312 848.283142,1477.888428 853.856323,1471.784424 
z"/>
<path fill="#060606" opacity="1.000000" stroke="none" 
	d="
M682.342285,1488.239136 
	C676.031433,1493.097534 671.101501,1493.289917 666.365112,1489.131714 
	C662.305176,1485.567505 661.234558,1480.203613 663.668274,1475.619995 
	C666.885132,1469.561401 673.648621,1467.492798 679.315430,1470.834351 
	C685.678406,1474.586304 686.902588,1480.953125 682.342285,1488.239136 
z"/>
<path fill="#FFFFFF" opacity="1.000000" stroke="none" 
	d="
M1251.809326,396.155640 
	C1318.641113,432.876404 1385.142334,469.434204 1452.307007,506.356750 
	C1438.260742,514.084351 1424.892944,521.448792 1411.515991,528.796631 
	C1298.278931,590.996704 1185.038330,653.190552 1071.802246,715.392822 
	C1018.102478,744.890930 964.430298,774.439392 910.669739,803.826416 
	C907.155762,805.747192 905.899048,807.817383 905.901428,811.846619 
	C906.009766,998.156250 905.995300,1184.465942 905.995117,1370.775635 
	C905.995117,1373.736694 905.995117,1376.697754 905.995117,1380.455811 
	C903.930786,1379.473633 902.464172,1378.864868 901.080688,1378.104980 
	C794.845947,1319.747437 688.617554,1261.378418 582.389282,1203.009155 
	C511.034668,1163.802002 439.694977,1124.567383 368.281708,1085.467285 
	C365.057404,1083.701904 363.930359,1081.842285 363.932251,1078.181641 
	C364.028839,889.038940 364.032043,699.896301 363.926880,510.753662 
	C363.924866,507.147552 365.299438,505.497772 368.207458,503.902954 
	C444.119965,462.271698 519.993164,420.568817 595.867676,378.868378 
	C698.148682,322.655060 800.438293,266.457489 902.654419,210.126312 
	C906.671448,207.912537 909.624329,208.018158 913.588013,210.200699 
	C1025.013428,271.554962 1136.508789,332.782074 1247.991821,394.031738 
	C1249.160522,394.673798 1250.316650,395.338562 1251.809326,396.155640 
z"/>
<path fill="#FBFBFB" opacity="1.000000" stroke="none" 
	d="
M778.010620,1546.118530 
	C769.423706,1551.004150 761.279480,1550.817017 754.904724,1545.819580 
	C749.530273,1541.606323 747.142700,1533.581543 749.324097,1526.414795 
	C751.458496,1519.402100 756.320007,1515.148315 763.502197,1514.131226 
	C771.075012,1513.058838 777.726257,1515.116821 782.068665,1521.915894 
	C786.041443,1528.136230 785.522156,1536.927612 781.037964,1543.015747 
	C780.259705,1544.072510 779.223389,1544.939087 778.010620,1546.118530 
z"/>
<path fill="#FBFBFB" opacity="1.000000" stroke="none" 
	d="
M759.971619,1586.151001 
	C768.026733,1586.737061 775.651917,1587.083008 783.216431,1587.955444 
	C787.347351,1588.432251 790.991882,1590.508423 791.849304,1595.058716 
	C792.800842,1600.108276 790.774536,1604.154053 786.572815,1607.090210 
	C780.670349,1611.214478 773.778259,1611.767944 767.011841,1611.673950 
	C761.778992,1611.601562 756.394958,1610.714844 751.384766,1609.185547 
	C744.639893,1607.126831 742.630432,1601.997925 745.027222,1595.382080 
	C747.395264,1588.845703 752.128479,1585.823486 759.971619,1586.151001 
z"/>
<path fill="#FDFDFD" opacity="1.000000" stroke="none" 
	d="
M577.444824,1492.128418 
	C595.974426,1495.042236 602.337952,1505.859741 604.241638,1521.180298 
	C605.690857,1532.843872 605.668579,1544.361938 601.239929,1555.553955 
	C596.333313,1567.953491 586.639343,1573.615845 574.031921,1574.880249 
	C568.598694,1575.425049 563.065369,1574.971680 557.204224,1574.971680 
	C557.204224,1547.381470 557.204224,1519.704590 557.204224,1492.073120 
	C563.824890,1492.073120 570.413025,1492.073120 577.444824,1492.128418 
z"/>
<path fill="#FBFBFB" opacity="1.000000" stroke="none" 
	d="
M1032.196289,1555.210327 
	C1036.572388,1553.358398 1040.588013,1550.835938 1044.821533,1550.392334 
	C1052.043823,1549.635620 1059.402832,1550.183838 1067.295410,1550.183838 
	C1067.295410,1554.660400 1067.358765,1559.076782 1067.241455,1563.488281 
	C1067.218384,1564.360840 1066.722534,1565.469727 1066.069214,1566.037476 
	C1059.734131,1571.544678 1052.978149,1576.434082 1044.327881,1577.371094 
	C1038.673706,1577.983521 1032.947632,1577.380615 1029.971191,1571.688843 
	C1027.049194,1566.100830 1027.692139,1560.446167 1032.196289,1555.210327 
z"/>
</svg>